<svg xmlns="http://www.w3.org/2000/svg" width="14.09999942779541" height="16.049999237060547" viewBox="0 0 14.09999942779541 16.049999237060547"><path d="M7.6894 0.167443 C7.29231 -0.0558143 6.80769 -0.0558141 6.4106 0.167443 L0.66616 3.3972 C0.254696 3.62854 0 4.06414 0 4.5365 L0 11.5135 C0 11.9859 0.254696 12.4215 0.66616 12.6528 L6.4106 15.8826 C6.80769 16.1058 7.29231 16.1058 7.6894 15.8826 L13.4338 12.6528 C13.8453 12.4215 14.1 11.9859 14.1 11.5135 L14.1 4.5365 C14.1 4.06414 13.8453 3.62854 13.4338 3.3972 L7.6894 0.167443 Z M1.56667 4.68945 L7.05 1.6065 L12.5333 4.68945 L12.5333 11.3605 L7.05 14.4435 L1.56667 11.3605 L1.56667 4.68945 Z M7.83333 4.62746 C7.83333 4.19444 7.48262 3.84341 7.05 3.84341 C6.61738 3.84341 6.26667 4.19444 6.26667 4.62746 L6.26667 7.68964 L3.49611 9.45432 C3.13113 9.6868 3.02353 10.1714 3.2558 10.5367 C3.48806 10.902 3.97223 11.0097 4.33722 10.7773 L7.05 9.04937 L9.76278 10.7773 C10.1278 11.0097 10.6119 10.902 10.8442 10.5367 C11.0765 10.1714 10.9689 9.6868 10.6039 9.45432 L7.83333 7.68964 L7.83333 4.62746 Z" fill="#727485" fill-rule="evenodd"/></svg>