<svg data-v-14d4252f="" width="24" height="24" viewBox="0 0 24 24" fill="none" xmlns="http://www.w3.org/2000/svg"><path d="M3.66666 6C3.66666 4.34315 5.0098 3 6.66666 3H17.3333C18.9902 3 20.3333 4.34315 20.3333 6V12C20.3333 12.5523 19.8856 13 19.3333 13C18.781 13 18.3333 12.5523 18.3333 12V6C18.3333 5.44772 17.8856 5 17.3333 5H6.66666C6.11437 5 5.66666 5.44772 5.66666 6V18C5.66666 18.5523 6.11437 19 6.66666 19H12C12.5523 19 13 19.4477 13 20C13 20.5523 12.5523 21 12 21H6.66666C5.0098 21 3.66666 19.6569 3.66666 18V6Z" fill="url(#paint0_linear_1136_9758)"/><path d="M8.22655 8.5931C8.22655 8.04081 8.67427 7.5931 9.22655 7.5931H14.7708C15.3231 7.5931 15.7708 8.04081 15.7708 8.5931C15.7708 9.14538 15.3231 9.5931 14.7708 9.5931H9.22655C8.67427 9.5931 8.22655 9.14538 8.22655 8.5931Z" fill="url(#paint1_linear_1136_9758)"/><path d="M9.22655 11.9544C8.67427 11.9544 8.22655 12.4021 8.22655 12.9544C8.22655 13.5067 8.67427 13.9544 9.22655 13.9544H12.9479C13.5002 13.9544 13.9479 13.5067 13.9479 12.9544C13.9479 12.4021 13.5002 11.9544 12.9479 11.9544H9.22655Z" fill="url(#paint2_linear_1136_9758)"/><path d="M15.1705 15.3595C15.561 14.9689 16.1942 14.9689 16.5847 15.3595L17.6055 16.3802L18.6262 15.3595C19.0167 14.9689 19.6499 14.9689 20.0404 15.3595C20.431 15.75 20.431 16.3831 20.0404 16.7737L19.0197 17.7944L20.0411 18.8158C20.4316 19.2063 20.4316 19.8395 20.0411 20.23C19.6505 20.6205 19.0174 20.6205 18.6268 20.23L17.6055 19.2086L16.5841 20.23C16.1936 20.6205 15.5604 20.6205 15.1699 20.23C14.7793 19.8395 14.7793 19.2063 15.1699 18.8158L16.1912 17.7944L15.1705 16.7737C14.78 16.3831 14.78 15.75 15.1705 15.3595Z" fill="url(#paint3_linear_1136_9758)"/><defs><linearGradient id="paint0_linear_1136_9758" x1="5.98479" y1="5.78651" x2="19.7822" y2="18.302" gradientUnits="userSpaceOnUse"><stop offset="0.410144" stop-color="#36EED8"/><stop offset="1" stop-color="#72E528"/></linearGradient><linearGradient id="paint1_linear_1136_9758" x1="5.98479" y1="5.78651" x2="19.7822" y2="18.302" gradientUnits="userSpaceOnUse"><stop offset="0.410144" stop-color="#36EED8"/><stop offset="1" stop-color="#72E528"/></linearGradient><linearGradient id="paint2_linear_1136_9758" x1="5.98479" y1="5.78651" x2="19.7822" y2="18.302" gradientUnits="userSpaceOnUse"><stop offset="0.410144" stop-color="#36EED8"/><stop offset="1" stop-color="#72E528"/></linearGradient><linearGradient id="paint3_linear_1136_9758" x1="5.98479" y1="5.78651" x2="19.7822" y2="18.302" gradientUnits="userSpaceOnUse"><stop offset="0.410144" stop-color="#36EED8"/><stop offset="1" stop-color="#72E528"/></linearGradient></defs></svg>