<svg xmlns="http://www.w3.org/2000/svg" width="13.875" height="15" viewBox="0 0 13.875 15"><path d="M2.97321 0 C3.36418 0 3.68112 0.31678 3.68112 0.707547 L3.68112 2.3489 C4.98141 2.66632 5.94643 3.83845 5.94643 5.23585 C5.94643 6.63325 4.98141 7.80538 3.68112 8.1228 L3.68112 14.2925 C3.68112 14.6832 3.36418 15 2.97321 15 C2.58225 15 2.26531 14.6832 2.26531 14.2925 L2.26531 8.1228 C0.965017 7.80538 0 6.63325 0 5.23585 C0 3.83845 0.965017 2.66632 2.26531 2.3489 L2.26531 0.707547 C2.26531 0.31678 2.58225 0 2.97321 0 Z M4.53061 5.23585 C4.53061 6.09554 3.83334 6.79245 2.97321 6.79245 C2.11309 6.79245 1.41582 6.09554 1.41582 5.23585 C1.41582 4.37616 2.11309 3.67925 2.97321 3.67925 C3.83334 3.67925 4.53061 4.37616 4.53061 5.23585 Z M9.34439 9.76415 C9.34439 8.90446 10.0417 8.20755 10.9018 8.20755 C11.7619 8.20755 12.4592 8.90446 12.4592 9.76415 C12.4592 10.6238 11.7619 11.3208 10.9018 11.3208 C10.0417 11.3208 9.34439 10.6238 9.34439 9.76415 Z M11.6097 12.6511 C12.91 12.3337 13.875 11.1616 13.875 9.76415 C13.875 8.36675 12.91 7.19462 11.6097 6.8772 L11.6097 0.707547 C11.6097 0.31678 11.2928 0 10.9018 0 C10.5108 0 10.1939 0.31678 10.1939 0.707547 L10.1939 6.8772 C8.89359 7.19462 7.92857 8.36675 7.92857 9.76415 C7.92857 11.1616 8.89359 12.3337 10.1939 12.6511 L10.1939 14.2925 C10.1939 14.6832 10.5108 15 10.9018 15 C11.2928 15 11.6097 14.6832 11.6097 14.2925 L11.6097 12.6511 Z" fill="#727485" fill-rule="evenodd"/></svg>