<svg data-v-14d4252f="" width="24" height="24" viewBox="0 0 24 24" fill="none" xmlns="http://www.w3.org/2000/svg"><path d="M10.2237 21.3387C10.7044 21.6764 11.3059 21.781 11.8911 21.5214C12.3934 21.2985 12.7508 20.8639 13.0074 20.4336C13.5286 19.5599 13.9098 18.2322 14.159 16.7021C14.2927 15.8809 14.3894 14.9941 14.4475 14.0755C15.394 14.0226 16.2982 13.9388 17.1213 13.826C18.6072 13.6224 19.8815 13.3188 20.6552 12.8918C20.9965 12.7034 21.5473 12.3264 21.6507 11.6579C21.7699 10.8873 21.2277 10.3895 20.8932 10.162C20.5173 9.90652 20.0206 9.71232 19.4894 9.5572C18.9422 9.3974 18.2896 9.25981 17.5569 9.14596C17.0111 9.06117 16.5 9.43484 16.4152 9.98058C16.3304 10.5263 16.7041 11.0375 17.2498 11.1222C17.8852 11.221 18.4212 11.3341 18.8493 11.4543C18.3502 11.594 17.6824 11.7304 16.8498 11.8445C16.1347 11.9425 15.3452 12.0179 14.5121 12.0684C14.5125 11.897 14.5115 11.7253 14.5093 11.5536C14.4855 9.75634 14.3183 8.01163 14.0225 6.54645C13.7358 5.12635 13.3133 3.88486 12.7137 3.13988C12.4063 2.75805 11.945 2.37641 11.3208 2.33642C10.6759 2.2951 10.1724 2.63596 9.83499 3.00778C9.19987 3.7076 8.76263 4.92477 8.46448 6.30211C8.34764 6.84189 8.6905 7.37419 9.23028 7.49103C9.77007 7.60788 10.3024 7.26502 10.4192 6.72523C10.6724 5.55561 10.9752 4.82814 11.2178 4.47743C11.487 4.86668 11.8065 5.67645 12.062 6.94223C12.3284 8.26173 12.4869 9.87965 12.5094 11.5801C12.5119 11.767 12.5127 11.9536 12.5119 12.1397C12.3264 12.1418 12.1399 12.1428 11.953 12.1426C10.1884 12.1408 8.48222 12.0316 7.07485 11.8342C6.2742 11.7219 5.6322 11.5892 5.15011 11.4542C5.59501 11.3294 6.15554 11.2123 6.82123 11.1112C7.36725 11.0283 7.74266 10.5184 7.65972 9.97241C7.57679 9.42639 7.06692 9.05098 6.5209 9.13391C5.78231 9.2461 5.12354 9.38202 4.56949 9.54001C4.0303 9.69377 3.52987 9.88498 3.14876 10.1337C2.81712 10.3501 2.26479 10.8234 2.33936 11.584C2.40741 12.2781 2.96318 12.6744 3.29953 12.8667C4.05975 13.3015 5.3248 13.6083 6.79704 13.8148C8.31302 14.0274 10.1133 14.1407 11.9508 14.1426C12.1138 14.1428 12.2765 14.1421 12.4388 14.1406C12.3837 14.9292 12.2983 15.6846 12.185 16.3805C11.9484 17.8331 11.616 18.8622 11.2898 19.4091C11.2643 19.4518 11.2403 19.4891 11.2179 19.5216C11.1679 19.4489 11.1085 19.3505 11.0425 19.2193C10.8802 18.8965 10.7149 18.4485 10.5623 17.8721C10.421 17.3382 9.87363 17.02 9.33973 17.1613C8.80584 17.3027 8.48761 17.8501 8.62894 18.384C8.80414 19.0458 9.01238 19.6338 9.25566 20.1177C9.48997 20.5837 9.80012 21.0411 10.2237 21.3387Z" fill="url(#paint0_linear_1136_3554)"/><defs><linearGradient id="paint0_linear_1136_3554" x1="5.02168" y1="5.32599" x2="19.9088" y2="19.9106" gradientUnits="userSpaceOnUse"><stop offset="0.410144" stop-color="#36EED8"/><stop offset="1" stop-color="#72E528"/></linearGradient></defs></svg>