<svg data-v-28aaf8a5="" width="24" height="24" viewBox="0 0 24 24" fill="none" xmlns="http://www.w3.org/2000/svg"><path d="M21.2442 15.6941C21.4996 15.6941 21.7181 15.7847 21.8983 15.9653C22.0797 16.1464 22.1698 16.3641 22.1698 16.6185V19.3948C22.1698 20.1609 21.8985 20.8141 21.3569 21.3568C20.8147 21.8996 20.161 22.1711 19.3946 22.1711H16.619C16.3632 22.1711 16.1454 22.0806 15.9649 21.8971C15.7839 21.7187 15.6931 21.4982 15.6931 21.2438C15.6931 20.9895 15.7839 20.7716 15.9649 20.5906C16.1455 20.4098 16.3632 20.3194 16.6191 20.3194H19.3947C19.6498 20.3194 19.8685 20.2287 20.0485 20.0479C20.2301 19.867 20.32 19.6493 20.32 19.392V16.6185C20.32 16.3613 20.4103 16.1435 20.5917 15.9656C20.7721 15.7817 20.9904 15.6912 21.246 15.6912L21.2442 15.6941ZM4.5916 1.81845H7.36692C7.62227 1.81845 7.8408 1.90895 8.02069 2.08968C8.20255 2.27084 8.29235 2.48853 8.29235 2.7429C8.29235 3.00022 8.20241 3.21791 8.02069 3.39611C7.8408 3.57979 7.62227 3.67016 7.36706 3.67016H4.59174C4.33596 3.67016 4.11771 3.75785 3.93768 3.94153C3.75583 4.11974 3.6656 4.34024 3.6656 4.59475V7.36824C3.6656 7.62542 3.57552 7.84325 3.39394 8.02398C3.2135 8.20485 2.99552 8.29536 2.74031 8.29536C2.48453 8.29536 2.2667 8.20485 2.08611 8.02412C1.90482 7.84325 1.81445 7.62542 1.81445 7.36824V4.59489C1.81445 3.82868 2.08541 3.17575 2.6276 2.633C3.16979 2.08996 3.82356 1.81859 4.58991 1.81859H4.5916V1.81845ZM2.74157 15.6941C2.99693 15.6941 3.2149 15.7847 3.39535 15.9653C3.57706 16.1464 3.66715 16.3641 3.66715 16.6185V19.3948C3.66715 19.6492 3.75695 19.867 3.93881 20.0479C4.11925 20.2287 4.33723 20.3193 4.59244 20.3193H7.36818C7.62353 20.3193 7.84179 20.4098 8.02224 20.5906C8.20367 20.7715 8.29375 20.9893 8.29375 21.2465C8.29375 21.5009 8.20381 21.7187 8.02224 21.8996C7.84179 22.0806 7.62353 22.1711 7.36818 22.1711H4.59244C3.82624 22.1711 3.17302 21.8996 2.63055 21.3568C2.08808 20.8168 1.8174 20.1609 1.8174 19.3949V16.6215C1.8174 16.3671 1.90721 16.1464 2.08864 15.9656C2.26937 15.7846 2.48748 15.6942 2.74242 15.6942H2.74157V15.6941ZM16.6191 1.81845H19.3947C20.1611 1.81845 20.8147 2.08968 21.3569 2.62991C21.8985 3.17266 22.1698 3.82587 22.1698 4.5918V7.36824C22.1698 7.62261 22.0798 7.84325 21.8983 8.02117C21.7181 8.20485 21.4996 8.29255 21.2442 8.29255C20.989 8.29255 20.7703 8.20485 20.5903 8.02117C20.4087 7.84311 20.3189 7.62261 20.3189 7.36824V4.59194C20.3189 4.33757 20.2287 4.11988 20.0471 3.93901C19.8667 3.75799 19.6486 3.66763 19.3929 3.66763H16.6177C16.3621 3.66763 16.1437 3.57712 15.9637 3.39625C15.7822 3.21524 15.692 2.99755 15.692 2.74304C15.692 2.48586 15.7822 2.26802 15.9637 2.08715C16.1437 1.90628 16.3621 1.81592 16.6177 1.81592L16.6191 1.81859V1.81845Z" fill="#1BE5EC"/><path d="M8.55664 11.9285C8.55664 12.8231 8.912 13.681 9.54453 14.3135C10.1771 14.9461 11.035 15.3014 11.9295 15.3014C12.8241 15.3014 13.682 14.9461 14.3145 14.3135C14.947 13.681 15.3024 12.8231 15.3024 11.9285C15.3024 11.034 14.947 10.1761 14.3145 9.54356C13.682 8.91102 12.8241 8.55566 11.9295 8.55566C11.035 8.55566 10.1771 8.91102 9.54453 9.54356C8.912 10.1761 8.55664 11.034 8.55664 11.9285Z" fill="#1BE5EC"/></svg>