<svg xmlns="http://www.w3.org/2000/svg" width="14.700000762939453" height="14.40000057220459" viewBox="0 0 14.700000762939453 14.40000057220459"><path d="M1.42917 2.27914 C1.42917 1.82142 1.7948 1.45036 2.24583 1.45036 L6.51092 1.45036 L7.6755 2.82919 C7.90823 3.10473 8.24798 3.26331 8.60559 3.26331 L12.4542 3.26331 C12.9052 3.26331 13.2708 3.63437 13.2708 4.09209 L13.2708 5.69784 L1.42917 5.69784 L1.42917 2.27914 Z M0 6.42302 L0 2.27914 C0 1.0204 1.00549 0 2.24583 0 L6.60483 0 C6.96243 0 7.30219 0.158581 7.53491 0.434124 L8.6995 1.81295 L12.4542 1.81295 C13.6945 1.81295 14.7 2.83335 14.7 4.09209 L14.7 6.42302 L14.7 12.1209 C14.7 13.3796 13.6945 14.4 12.4542 14.4 L2.24583 14.4 C1.00549 14.4 0 13.3796 0 12.1209 L0 6.42302 Z M13.2708 7.1482 L13.2708 12.1209 C13.2708 12.5786 12.9052 12.9496 12.4542 12.9496 L2.24583 12.9496 C1.7948 12.9496 1.42917 12.5786 1.42917 12.1209 L1.42917 7.1482 L13.2708 7.1482 Z" fill="#FFFFFF" fill-rule="evenodd"/></svg>