<svg
                      data-v-9e64a36d=""
                      width="20"
                      height="20"
                      viewBox="0 0 20 20"
                      fill="currentColor"
                      xmlns="http://www.w3.org/2000/svg"
                      style='color:white
                      '
                    >
                      <path
                        fillRule="evenodd"
                        clipRule="evenodd"
                        d="M5.55005 6.10856V14.4419C5.55005 15.209 6.17188 15.8308 6.93894 15.8308H13.05C13.8171 15.8308 14.4389 15.209 14.4389 14.4419V6.10856H16.1056V14.4419C16.1056 16.1294 14.7376 17.4974 13.05 17.4974H6.93894C5.2514 17.4974 3.88338 16.1294 3.88338 14.4419V6.10856H5.55005Z"
                      ></path>
                      <path
                        fillRule="evenodd"
                        clipRule="evenodd"
                        d="M2.49512 6.46038C2.49512 6.00015 2.86821 5.62705 3.32845 5.62705H16.6618C17.122 5.62705 17.4951 6.00015 17.4951 6.46038C17.4951 6.92062 17.122 7.29372 16.6618 7.29372H3.32845C2.86821 7.29372 2.49512 6.92062 2.49512 6.46038Z"
                      ></path>
                      <path
                        fillRule="evenodd"
                        clipRule="evenodd"
                        d="M6.38401 4.44689C6.38401 3.373 7.25456 2.50244 8.32845 2.50244H11.6618C12.7357 2.50244 13.6062 3.373 13.6062 4.44689V5.79133C13.6062 6.25157 13.2331 6.62466 12.7729 6.62466C12.3127 6.62466 11.9396 6.25157 11.9396 5.79133V4.44689C11.9396 4.29347 11.8152 4.16911 11.6618 4.16911H8.32845C8.17504 4.16911 8.05067 4.29347 8.05067 4.44689V5.79133C8.05067 6.25157 7.67758 6.62466 7.21734 6.62466C6.7571 6.62466 6.38401 6.25157 6.38401 5.79133V4.44689Z"
                      ></path>
                      <path
                        fillRule="evenodd"
                        clipRule="evenodd"
                        d="M7.71734 13.3331C7.71734 12.8421 8.11531 12.4442 8.60623 12.4442H11.384C11.8749 12.4442 12.2729 12.8421 12.2729 13.3331C12.2729 13.824 11.8749 14.222 11.384 14.222H8.60623C8.11531 14.222 7.71734 13.824 7.71734 13.3331Z"
                      ></path>
                    </svg>