<svg data-v-152cbf9a="" width="20" height="20" viewBox="0 0 20 20" fill="currentColor" xmlns="http://www.w3.org/2000/svg"><path d="M12.4999 16.6667C12.7123 16.6669 12.9166 16.7482 13.071 16.894C13.2254 17.0399 13.3184 17.2391 13.3308 17.4512C13.3433 17.6632 13.2743 17.872 13.138 18.0349C13.0016 18.1977 12.8083 18.3024 12.5974 18.3275L12.4999 18.3333H7.50017C7.28778 18.3331 7.0835 18.2518 6.92906 18.106C6.77463 17.9602 6.68169 17.7609 6.66924 17.5488C6.6568 17.3368 6.72578 17.128 6.86209 16.9651C6.99841 16.8023 7.19178 16.6976 7.40268 16.6725L7.50017 16.6667H12.4999ZM10 1.66667C11.5534 1.66659 13.0685 2.14891 14.336 3.047C15.6035 3.94509 16.5609 5.21464 17.0759 6.68027C17.5909 8.14591 17.6381 9.7353 17.2109 11.2289C16.7838 12.7225 15.9034 14.0466 14.6914 15.0183C14.1006 15.4925 13.5032 15.785 12.704 15.8283L12.4999 15.8342H7.50017C6.60022 15.8333 5.96693 15.5425 5.33363 15.0383C4.11534 14.0701 3.2284 12.7469 2.79572 11.252C2.36305 9.75714 2.40607 8.16469 2.91883 6.69537C3.43158 5.22606 4.38868 3.95264 5.65747 3.05161C6.92625 2.15058 8.44389 1.66658 10 1.66667ZM10 3.33334C8.78958 3.33319 7.60906 3.70964 6.62213 4.41051C5.6352 5.11138 4.89074 6.10194 4.49196 7.24488C4.09318 8.38782 4.05982 9.62652 4.39652 10.7893C4.73322 11.952 5.42329 12.9812 6.37107 13.7342C6.69688 13.9933 6.97603 14.1342 7.35435 14.1617L7.50017 14.1675L9.16674 14.1667V12.0708C9.16672 11.0422 8.78621 10.0499 8.09847 9.285L7.94681 9.125L7.74432 8.92251C7.59488 8.77254 7.50811 8.57131 7.50165 8.35968C7.49519 8.14806 7.56951 7.94191 7.70953 7.78311C7.84955 7.6243 8.04477 7.52475 8.25552 7.50467C8.46628 7.48459 8.67678 7.5455 8.84426 7.675L8.92259 7.74417L9.12508 7.94667C9.46423 8.28584 9.75838 8.66334 10.0009 9.06834C10.1942 8.74417 10.42 8.43834 10.6767 8.15417L10.875 7.94584L11.0775 7.74417L11.1558 7.675C11.3161 7.55072 11.5163 7.48919 11.7188 7.50197C11.9212 7.51474 12.1121 7.60094 12.2555 7.74439C12.399 7.88785 12.4852 8.0787 12.4979 8.28118C12.5107 8.48365 12.4492 8.68383 12.3249 8.84417L12.2557 8.92251L12.0532 9.125L11.9016 9.285C11.2645 9.99362 10.8895 10.8992 10.8391 11.8508L10.8333 12.0708V14.1667H12.4999C12.954 14.1667 13.2765 14.0167 13.649 13.7183C14.5918 12.9626 15.2767 11.9327 15.609 10.7709C15.9413 9.60916 15.9046 8.37286 15.504 7.23282C15.1035 6.09279 14.3588 5.1053 13.3728 4.40677C12.3869 3.70824 11.2083 3.33316 10 3.33334Z"/></svg>