<svg data-v-9816f7b8="" width="20" height="20" viewBox="0 0 20 20" fill="none" xmlns="http://www.w3.org/2000/svg"><path d="M8.05561 12.2667C7.59537 12.2667 7.22228 12.6398 7.22228 13.1C7.22228 13.5602 7.59537 13.9333 8.05561 13.9333H11.9445C12.4047 13.9333 12.7778 13.5602 12.7778 13.1C12.7778 12.6398 12.4047 12.2667 11.9445 12.2667H8.05561Z" fill="url(#paint0_linear_1085_91311)"/><path fill-rule="evenodd" clip-rule="evenodd" d="M11.338 2.83244C10.5201 2.31318 9.4759 2.31318 8.65804 2.83244L3.33249 6.21361C2.46815 6.76238 2.02577 7.78271 2.21602 8.78872L3.48921 15.521C3.71249 16.7017 4.7441 17.5565 5.94567 17.5565H14.0504C15.2519 17.5565 16.2836 16.7017 16.5068 15.521L17.78 8.78872C17.9703 7.78271 17.5279 6.76238 16.6635 6.2136L11.338 2.83244ZM9.55136 4.23947C9.82398 4.06639 10.1721 4.06639 10.4447 4.23947L15.7702 7.62064C16.0583 7.80357 16.2058 8.14368 16.1424 8.47901L14.8692 15.2113C14.7948 15.6049 14.4509 15.8898 14.0504 15.8898H5.94567C5.54514 15.8898 5.20127 15.6049 5.12685 15.2113L3.85366 8.47901C3.79024 8.14368 3.9377 7.80357 4.22582 7.62064L9.55136 4.23947Z" fill="url(#paint1_linear_1085_91311)"/><defs><linearGradient id="paint0_linear_1085_91311" x1="2.17236" y1="2.44299" x2="17.2766" y2="18.0847" gradientUnits="userSpaceOnUse"><stop offset="0.0926677" stop-color="#52FFBA"/><stop offset="0.469568" stop-color="#23FAEC"/><stop offset="0.885" stop-color="#00AAFF"/></linearGradient><linearGradient id="paint1_linear_1085_91311" x1="2.17236" y1="2.44299" x2="17.2766" y2="18.0847" gradientUnits="userSpaceOnUse"><stop offset="0.0926677" stop-color="#52FFBA"/><stop offset="0.469568" stop-color="#23FAEC"/><stop offset="0.885" stop-color="#00AAFF"/></linearGradient></defs></svg>