<svg data-v-152cbf9a="" width="20" height="20" viewBox="0 0 20 20" fill="currentColor" xmlns="http://www.w3.org/2000/svg"><path d="M14.2531 6.69798C14.2531 7.28302 13.7788 7.75729 13.1937 7.75729C12.6087 7.75729 12.1344 7.28302 12.1344 6.69798C12.1344 6.11294 12.6087 5.63867 13.1937 5.63867C13.7788 5.63867 14.2531 6.11294 14.2531 6.69798Z"/><path fill-rule="evenodd" clip-rule="evenodd" d="M2.77472 2.70655C3.25611 2.4491 3.72075 2.35107 4.6581 2.35107H13.9987C14.9361 2.35107 15.4007 2.4491 15.8821 2.70655C16.3397 2.95128 16.7036 3.31516 16.9483 3.77277C17.2058 4.25416 17.3038 4.71879 17.3038 5.65615V14.344C17.3038 15.2813 17.2058 15.746 16.9483 16.2273C16.7036 16.6849 16.3397 17.0488 15.8821 17.2936C15.4007 17.551 14.9361 17.649 13.9987 17.649H4.6581C3.72074 17.649 3.25611 17.551 2.77472 17.2936C2.31712 17.0488 1.95324 16.6849 1.7085 16.2273C1.45106 15.746 1.35303 15.2813 1.35303 14.344V5.65615C1.35303 4.71879 1.45106 4.25416 1.7085 3.77277C1.95323 3.31516 2.31712 2.95128 2.77472 2.70655ZM3.8467 3.99241C3.70925 4.01896 3.62553 4.05347 3.52408 4.10773C3.34338 4.20436 3.20632 4.34143 3.10968 4.52212C3.05542 4.62357 3.02091 4.7073 2.99437 4.84475C2.96419 5.001 2.942 5.2409 2.942 5.65615V6.34997C8.06699 7.06801 12.0294 11.0332 12.6632 16.0601H13.9987C14.414 16.0601 14.6539 16.0379 14.8101 16.0077C14.9476 15.9812 15.0313 15.9466 15.1327 15.8924C15.3134 15.7957 15.4505 15.6587 15.5471 15.478C15.6014 15.3765 15.6359 15.2928 15.6625 15.1554C15.6926 14.9991 15.7148 14.7592 15.7148 14.344V5.65615C15.7148 5.2409 15.6926 5.001 15.6625 4.84475C15.6359 4.7073 15.6014 4.62357 15.5471 4.52212C15.4505 4.34142 15.3134 4.20436 15.1327 4.10773C15.0313 4.05347 14.9476 4.01896 14.8101 3.99241C14.6539 3.96224 14.414 3.94004 13.9987 3.94004H4.6581C4.24285 3.94004 4.00296 3.96224 3.8467 3.99241ZM2.942 14.344V7.95687C7.19853 8.64734 10.4489 11.9271 11.0594 16.0601H4.6581C4.24285 16.0601 4.00296 16.0379 3.8467 16.0077C3.70925 15.9812 3.62553 15.9466 3.52408 15.8924C3.34338 15.7957 3.20632 15.6587 3.10968 15.478C3.05542 15.3765 3.02091 15.2928 2.99437 15.1554C2.96419 14.9991 2.942 14.7592 2.942 14.344Z"/></svg>