<svg data-v-8882fffa="" xmlns="http://www.w3.org/2000/svg" width="28" height="28" fill="none"><circle cx="14" cy="14" r="14" fill="#fff" fill-opacity=".12"/><path fill="#fff" fill-rule="evenodd" d="M14 11.9a2.1 2.1 0 1 0 0 4.2 2.1 2.1 0 0 0 0-4.2m0-1.4a3.5 3.5 0 1 1 0 7 3.5 3.5 0 0 1 0-7m4.55-.175a.875.875 0 1 1-1.75 0 .875.875 0 0 1 1.75 0M14 8.4c-1.732 0-2.015.005-2.82.04-.55.027-.917.1-1.259.233a2 2 0 0 0-.756.492c-.219.212-.387.47-.493.756-.133.343-.206.71-.231 1.259-.037.773-.042 1.043-.042 2.82 0 1.733.005 2.015.04 2.82.027.548.1.917.233 1.258.119.305.259.524.491.756.236.235.455.376.756.492.346.134.714.208 1.26.233.773.037 1.043.041 2.82.041 1.733 0 2.015-.005 2.82-.04.548-.026.916-.1 1.259-.232.285-.106.544-.274.756-.492.235-.236.376-.455.492-.756.133-.345.207-.713.233-1.26.036-.773.04-1.043.04-2.82 0-1.732-.005-2.015-.04-2.82-.026-.548-.1-.917-.233-1.259a2.04 2.04 0 0 0-.492-.756 2 2 0 0 0-.756-.493c-.343-.133-.711-.206-1.258-.231-.773-.037-1.042-.041-2.82-.041M14 7c1.902 0 2.14.007 2.886.042.745.035 1.253.152 1.699.325.462.178.851.42 1.24.808.356.35.632.773.808 1.24.172.446.29.954.325 1.7.033.746.042.983.042 2.885s-.007 2.14-.042 2.885c-.035.746-.153 1.253-.325 1.7-.176.467-.451.89-.808 1.24a3.4 3.4 0 0 1-1.24.808c-.446.172-.954.29-1.699.325-.747.033-.984.042-2.886.042s-2.14-.007-2.886-.042c-.745-.035-1.252-.153-1.699-.325a3.4 3.4 0 0 1-1.24-.808 3.4 3.4 0 0 1-.808-1.24c-.173-.446-.29-.954-.325-1.7C7.008 16.14 7 15.902 7 14s.007-2.14.042-2.885c.035-.747.152-1.253.325-1.7.176-.467.451-.89.808-1.24.35-.357.773-.632 1.24-.808.446-.173.953-.29 1.699-.325C11.86 7.009 12.098 7 14 7" clip-rule="evenodd"/></svg>