<svg data-v-14d4252f="" width="24" height="24" viewBox="0 0 24 24" fill="none" xmlns="http://www.w3.org/2000/svg"><path d="M12.0452 3.92413C12.0203 3.90318 11.984 3.90318 11.9592 3.92413L9.86836 5.68805C9.47437 6.02044 8.88553 5.9705 8.55315 5.57651C8.22076 5.18253 8.2707 4.59369 8.66469 4.2613L10.7555 2.49738C11.4756 1.88985 12.5288 1.88987 13.2489 2.49742L15.3396 4.26133C15.7335 4.59373 15.7834 5.18257 15.451 5.57654C15.1186 5.97052 14.5298 6.02043 14.1358 5.68803L12.0452 3.92413Z" fill="url(#paint0_linear_3874_35033)"/><path fill-rule="evenodd" clip-rule="evenodd" d="M7.33317 12.0001C7.33317 9.42275 9.42251 7.33341 11.9998 7.33341C14.5772 7.33341 16.6665 9.42275 16.6665 12.0001C16.6665 14.5774 14.5772 16.6667 11.9998 16.6667C9.42251 16.6667 7.33317 14.5774 7.33317 12.0001ZM11.9998 9.33341C10.5271 9.33341 9.33317 10.5273 9.33317 12.0001C9.33317 13.4728 10.5271 14.6667 11.9998 14.6667C13.4726 14.6667 14.6665 13.4728 14.6665 12.0001C14.6665 10.5273 13.4726 9.33341 11.9998 9.33341Z" fill="url(#paint1_linear_3874_35033)"/><path d="M11.9592 20.076C11.984 20.097 12.0203 20.097 12.0452 20.076L14.1358 18.3121C14.5298 17.9797 15.1186 18.0296 15.451 18.4236C15.7834 18.8176 15.7335 19.4064 15.3396 19.7388L13.2489 21.5027C12.5288 22.1103 11.4756 22.1103 10.7555 21.5028L8.66469 19.7389C8.2707 19.4065 8.22076 18.8176 8.55315 18.4236C8.88553 18.0297 9.47437 17.9797 9.86836 18.3121L11.9592 20.076Z" fill="url(#paint2_linear_3874_35033)"/><path d="M20.0758 12.0428C20.0967 12.018 20.0967 11.9817 20.0758 11.9568L18.3119 9.866C17.9795 9.47201 18.0294 8.88317 18.4234 8.55079C18.8174 8.2184 19.4062 8.26834 19.7386 8.66233L21.5025 10.7532C22.1101 11.4733 22.11 12.5265 21.5025 13.2465L19.7386 15.3372C19.4062 15.7312 18.8173 15.7811 18.4234 15.4487C18.0294 15.1163 17.9795 14.5274 18.3119 14.1335L20.0758 12.0428Z" fill="url(#paint3_linear_3874_35033)"/><path d="M3.92388 11.9568C3.90293 11.9817 3.90293 12.018 3.92388 12.0428L5.68779 14.1335C6.02019 14.5274 5.97027 15.1163 5.5763 15.4487C5.18232 15.7811 4.59348 15.7312 4.26108 15.3372L2.49718 13.2465C1.88963 12.5265 1.88961 11.4733 2.49713 10.7532L4.26106 8.66233C4.59344 8.26834 5.18229 8.2184 5.57627 8.55079C5.97026 8.88317 6.0202 9.47201 5.68781 9.866L3.92388 11.9568Z" fill="url(#paint4_linear_3874_35033)"/><defs><linearGradient id="paint0_linear_3874_35033" x1="4.81157" y1="5.12497" x2="20.1476" y2="20.1484" gradientUnits="userSpaceOnUse"><stop offset="0.410144" stop-color="#36EED8"/><stop offset="1" stop-color="#72E528"/></linearGradient><linearGradient id="paint1_linear_3874_35033" x1="4.81157" y1="5.12497" x2="20.1476" y2="20.1484" gradientUnits="userSpaceOnUse"><stop offset="0.410144" stop-color="#36EED8"/><stop offset="1" stop-color="#72E528"/></linearGradient><linearGradient id="paint2_linear_3874_35033" x1="4.81157" y1="5.12497" x2="20.1476" y2="20.1484" gradientUnits="userSpaceOnUse"><stop offset="0.410144" stop-color="#36EED8"/><stop offset="1" stop-color="#72E528"/></linearGradient><linearGradient id="paint3_linear_3874_35033" x1="4.81157" y1="5.12497" x2="20.1476" y2="20.1484" gradientUnits="userSpaceOnUse"><stop offset="0.410144" stop-color="#36EED8"/><stop offset="1" stop-color="#72E528"/></linearGradient><linearGradient id="paint4_linear_3874_35033" x1="4.81157" y1="5.12497" x2="20.1476" y2="20.1484" gradientUnits="userSpaceOnUse"><stop offset="0.410144" stop-color="#36EED8"/><stop offset="1" stop-color="#72E528"/></linearGradient></defs></svg>