<svg data-v-14d4252f="" width="24" height="24" viewBox="0 0 24 24" fill="none" xmlns="http://www.w3.org/2000/svg"><path fill-rule="evenodd" clip-rule="evenodd" d="M3 6C3 4.34315 4.34315 3 6 3H18C19.6569 3 21 4.34315 21 6V18C21 19.6569 19.6569 21 18 21H6C4.34315 21 3 19.6569 3 18V6ZM6 5C5.44772 5 5 5.44772 5 6V18C5 18.5523 5.44772 19 6 19H18C18.5523 19 19 18.5523 19 18V6C19 5.44772 18.5523 5 18 5H6Z" fill="url(#paint0_linear_119_5121)"/><path d="M16.8587 8.32982C16.8587 9.02938 16.2916 9.59648 15.592 9.59648C14.8925 9.59648 14.3254 9.02938 14.3254 8.32982C14.3254 7.63026 14.8925 7.06315 15.592 7.06315C16.2916 7.06315 16.8587 7.63026 16.8587 8.32982Z" fill="url(#paint1_linear_119_5121)"/><path fill-rule="evenodd" clip-rule="evenodd" d="M11.5514 10.2759C11.1609 9.88544 10.5277 9.88545 10.1372 10.276L7.30685 13.1063L5.04151 10.8409C4.651 10.4503 4.01783 10.4503 3.6273 10.8408C3.23676 11.2313 3.23675 11.8645 3.62726 12.255L6.59971 15.2276C6.78724 15.4152 7.0416 15.5206 7.30682 15.5206C7.57204 15.5206 7.8264 15.4152 8.01394 15.2277L10.8443 12.3973L18.2091 19.7616C18.5996 20.1521 19.2328 20.1521 19.6233 19.7616C20.0138 19.371 20.0138 18.7379 19.6233 18.3474L11.5514 10.2759Z" fill="url(#paint2_linear_119_5121)"/><defs><linearGradient id="paint0_linear_119_5121" x1="5.50349" y1="5.78651" x2="17.723" y2="18.429" gradientUnits="userSpaceOnUse"><stop stop-color="#36EED8"/><stop offset="1" stop-color="#ABFF4A"/></linearGradient><linearGradient id="paint1_linear_119_5121" x1="5.50349" y1="5.78651" x2="17.723" y2="18.429" gradientUnits="userSpaceOnUse"><stop stop-color="#36EED8"/><stop offset="1" stop-color="#ABFF4A"/></linearGradient><linearGradient id="paint2_linear_119_5121" x1="5.50349" y1="5.78651" x2="17.723" y2="18.429" gradientUnits="userSpaceOnUse"><stop stop-color="#36EED8"/><stop offset="1" stop-color="#ABFF4A"/></linearGradient></defs></svg>