<svg
                    data-v-b7911999=""
                    width="20"
                    height="20"
                    viewBox="0 0 20 20"
                    fill="currentColor"
                    xmlns="http://www.w3.org/2000/svg"
                    style="color:white"
                  >
                    <path
                      fillRule="evenodd"
                      clipRule="evenodd"
                      d="M10.1216 2.08568C11.7518 2.11105 13.3344 2.63922 14.6531 3.59799C15.9717 4.55676 16.9621 5.89936 17.4889 7.44227C18.0158 8.98519 18.0532 10.6531 17.5963 12.2182C17.4673 12.66 17.0046 12.9135 16.5628 12.7846C16.121 12.6556 15.8674 12.1928 15.9964 11.7511C16.3572 10.5156 16.3276 9.19884 15.9117 7.98081C15.4958 6.76278 14.7139 5.70289 13.6729 4.94601C12.6319 4.18912 11.3826 3.77217 10.0957 3.75214C8.80879 3.73211 7.54709 4.10997 6.48304 4.83409C6.10255 5.09302 5.5842 4.99449 5.32526 4.614C5.06633 4.23351 5.16487 3.71515 5.54536 3.45622C6.89322 2.53896 8.49147 2.0603 10.1216 2.08568Z"
                    ></path>
                    <path
                      fillRule="evenodd"
                      clipRule="evenodd"
                      d="M14.1706 8.99924C14.516 8.69512 15.0426 8.72863 15.3467 9.07407L17.4218 11.4312C17.726 11.7766 17.6925 12.3032 17.347 12.6073C17.0016 12.9114 16.475 12.8779 16.1709 12.5325L14.0957 10.1754C13.7916 9.82993 13.8251 9.30335 14.1706 8.99924Z"
                    ></path>
                    <path
                      fillRule="evenodd"
                      clipRule="evenodd"
                      d="M10.0153 17.9148C8.38493 17.9183 6.79326 17.4183 5.45782 16.483C4.12238 15.5477 3.10834 14.2229 2.5543 12.6895C2.00025 11.1562 1.93323 9.48916 2.36239 7.91628C2.48354 7.47228 2.94169 7.21055 3.3857 7.3317C3.8297 7.45285 4.09143 7.911 3.97028 8.355C3.63149 9.59668 3.68439 10.9127 4.12178 12.1232C4.55916 13.3336 5.35967 14.3795 6.41391 15.1178C7.46814 15.8562 8.72466 16.2509 10.0117 16.2482C11.2988 16.2454 12.5536 15.8453 13.6047 15.1024C13.9805 14.8368 14.5005 14.9261 14.7662 15.302C15.0318 15.6778 14.9424 16.1978 14.5666 16.4635C13.2352 17.4045 11.6457 17.9113 10.0153 17.9148Z"
                    ></path>
                    <path
                      fillRule="evenodd"
                      clipRule="evenodd"
                      d="M5.84467 11.0742C5.50466 11.3844 4.97758 11.3602 4.66739 11.0202L2.55085 8.70022C2.24067 8.36022 2.26484 7.83314 2.60485 7.52295C2.94485 7.21276 3.47193 7.23694 3.78212 7.57694L5.89866 9.89696C6.20885 10.237 6.18467 10.764 5.84467 11.0742Z"
                    ></path>
                  </svg>