<svg data-v-14d4252f="" width="24" height="24" viewBox="0 0 24 24" fill="none" xmlns="http://www.w3.org/2000/svg"><path fill-rule="evenodd" clip-rule="evenodd" d="M11.1994 7.71761C11.6944 7.4318 12.3043 7.4318 12.7994 7.71761L15.3081 9.16605C15.8032 9.45186 16.1081 9.98006 16.1081 10.5517V13.4486C16.1081 14.0202 15.8032 14.5484 15.3081 14.8342L12.7994 16.2826C12.3043 16.5684 11.6944 16.5684 11.1994 16.2826L8.69062 14.8342C8.19558 14.5484 7.89062 14.0202 7.89062 13.4486V10.5517C7.89062 9.98006 8.19558 9.45186 8.69062 9.16605L11.1994 7.71761ZM9.75729 10.7056V13.2946L11.9994 14.5891L14.2415 13.2946V10.7056L11.9994 9.41118L9.75729 10.7056Z" fill="url(#31672)"/><path fill-rule="evenodd" clip-rule="evenodd" d="M10.8329 2.18565C11.5548 1.76884 12.4443 1.76884 13.1662 2.18565L19.9158 6.08252C20.6377 6.49933 21.0825 7.26963 21.0825 8.10325V15.897C21.0825 16.7306 20.6377 17.5009 19.9158 17.9177L13.1662 21.8146C12.4443 22.2314 11.5548 22.2314 10.8329 21.8146L4.08333 17.9177C3.36139 17.5009 2.91666 16.7306 2.91666 15.897V8.10325C2.91666 7.26963 3.3614 6.49933 4.08333 6.08252L10.8329 2.18565ZM12.1662 3.91771C12.0631 3.85816 11.936 3.85816 11.8329 3.91771L5.08333 7.81457C4.9802 7.87412 4.91666 7.98416 4.91666 8.10325V15.897C4.91666 16.0161 4.9802 16.1261 5.08333 16.1857L11.8329 20.0825C11.936 20.1421 12.0631 20.1421 12.1662 20.0825L18.9158 16.1857C19.0189 16.1261 19.0825 16.0161 19.0825 15.897V8.10325C19.0825 7.98416 19.0189 7.87412 18.9158 7.81457L12.1662 3.91771Z" fill="url(#31672)"/><defs><linearGradient id="31672" x1="5.44322" y1="5.00851" x2="20.9127" y2="18.6001" gradientUnits="userSpaceOnUse"><stop offset="0.410144" stop-color="#5252e5"/><stop offset="1" stop-color="#6c6cf5"/></linearGradient></defs></svg>