<svg data-v-14d4252f="" xmlns="http://www.w3.org/2000/svg" width="24" height="24" fill="none"><path fill="url(#22244)" fill-rule="evenodd" d="M12 7.333a4.667 4.667 0 1 0 0 9.333 4.667 4.667 0 0 0 0-9.333m-6.667 4.666a6.667 6.667 0 1 1 13.334 0 6.667 6.667 0 0 1-13.334 0" clip-rule="evenodd"/><path fill="url(#22244)" fill-rule="evenodd" d="M12 1a1 1 0 0 1 1 1v1.333a1 1 0 1 1-2 0V1.999a1 1 0 0 1 1-1" clip-rule="evenodd"/><path fill="url(#22244)" fill-rule="evenodd" d="M12 19.666a1 1 0 0 1 1 1v1.333a1 1 0 0 1-2 0v-1.333a1 1 0 0 1 1-1" clip-rule="evenodd"/><path fill="url(#22244)" fill-rule="evenodd" d="M19.777 4.221a1 1 0 0 1 0 1.415l-.942.942a1 1 0 1 1-1.415-1.414l.943-.943a1 1 0 0 1 1.414 0" clip-rule="evenodd"/><path fill="url(#22244)" fill-rule="evenodd" d="M6.578 17.42a1 1 0 0 1 0 1.415l-.943.943a1 1 0 1 1-1.414-1.415l.943-.942a1 1 0 0 1 1.414 0" clip-rule="evenodd"/><path fill="url(#22244)" fill-rule="evenodd" d="M23 12a1 1 0 0 1-1 1h-1.333a1 1 0 0 1 0-2H22a1 1 0 0 1 1 1" clip-rule="evenodd"/><path fill="url(#22244)" fill-rule="evenodd" d="M4.333 12a1 1 0 0 1-1 1H2a1 1 0 0 1 0-2h1.333a1 1 0 0 1 1 1" clip-rule="evenodd"/><path fill="url(#22244)" fill-rule="evenodd" d="M19.777 19.777a1 1 0 0 1-1.414 0l-.943-.942a1 1 0 0 1 1.415-1.415l.942.943a1 1 0 0 1 0 1.414" clip-rule="evenodd"/><path fill="url(#22244)" fill-rule="evenodd" d="M6.578 6.578a1 1 0 0 1-1.414 0l-.943-.943a1 1 0 0 1 1.414-1.414l.943.943a1 1 0 0 1 0 1.414" clip-rule="evenodd"/><defs><linearGradient id="22244" x1="4.06" x2="18.995" y1="4.405" y2="19.857" gradientUnits="userSpaceOnUse"><stop stop-color="#36EED8"/><stop offset="1" stop-color="#ABFF4A"/></linearGradient></defs></svg>