<svg width="833" height="96" viewBox="0 0 833 96" fill="none" xmlns="http://www.w3.org/2000/svg">
<path d="M12.3559 4.292H14.1599L6.94386 11.002L15.1499 20H13.3019L6.01986 11.86L3.20386 14.478V20H1.86186V4.292H3.20386V12.916L12.3559 4.292ZM16.7505 4.292H18.0925V18.812H27.5305V20H16.7505V4.292ZM29.8392 4.292H31.1812V20H29.8392V4.292ZM34.5826 4.292H36.1006L45.6046 17.91H45.6706V4.292H47.0346V20H45.5386L35.9906 6.272H35.9246V20H34.5826V4.292ZM56.8887 3.984C58.8247 3.984 60.3647 4.468 61.5307 5.458C62.6087 6.382 63.2907 7.702 63.5767 9.374H62.2127C61.9707 8.098 61.4207 7.086 60.5407 6.36C59.6167 5.59 58.3847 5.216 56.8887 5.216C55.0407 5.216 53.5887 5.876 52.5107 7.196C51.4547 8.472 50.9267 10.144 50.9267 12.234C50.9267 14.28 51.4547 15.908 52.5107 17.118C53.6327 18.438 55.2387 19.098 57.3507 19.098C58.2747 19.098 59.1547 18.966 60.0347 18.702C60.8707 18.438 61.5967 18.13 62.1687 17.734V13.268H56.8007V12.08H63.5107V18.372C62.7847 18.944 61.8827 19.428 60.8047 19.78C59.6607 20.132 58.4727 20.308 57.2407 20.308C54.7767 20.308 52.8407 19.494 51.4767 17.91C50.2007 16.436 49.5847 14.544 49.5847 12.234C49.5847 9.902 50.2007 7.988 51.4547 6.47C52.7967 4.798 54.6007 3.984 56.8887 3.984ZM78.6065 4.292H80.1905L86.4825 20H85.0085L83.1825 15.314H75.6145L73.7885 20H72.3145L78.6065 4.292ZM76.0545 14.17H82.7425L79.4425 5.744H79.3765L76.0545 14.17ZM88.2767 4.292H89.6187V20H88.2767V4.292ZM94.2521 17.8C94.6921 17.8 95.0221 17.976 95.2861 18.328C95.5061 18.658 95.6381 19.12 95.6381 19.692C95.6381 20.572 95.3741 21.32 94.8681 21.958C94.3621 22.574 93.7021 22.992 92.8661 23.212V22.332C93.4381 22.156 93.8781 21.848 94.1861 21.408C94.4941 21.012 94.6261 20.55 94.6261 20.022C94.5381 20.044 94.4061 20.066 94.1861 20.066C93.8781 20.066 93.6141 19.956 93.3941 19.736C93.1741 19.516 93.0641 19.252 93.0641 18.944C93.0641 18.592 93.1741 18.306 93.3941 18.108C93.5921 17.888 93.8781 17.8 94.2521 17.8ZM111.144 3.984C112.86 3.984 114.224 4.402 115.236 5.238C116.27 6.074 116.864 7.306 116.996 8.934H115.654C115.478 7.702 115.016 6.778 114.268 6.14C113.52 5.502 112.464 5.194 111.1 5.194C109.824 5.194 108.834 5.414 108.108 5.854C107.272 6.338 106.876 7.086 106.876 8.076C106.876 8.956 107.36 9.638 108.35 10.166C108.812 10.386 109.824 10.738 111.364 11.178C113.366 11.75 114.708 12.234 115.412 12.674C116.71 13.444 117.37 14.544 117.37 15.974C117.37 17.316 116.798 18.394 115.676 19.186C114.598 19.934 113.168 20.308 111.386 20.308C109.582 20.308 108.152 19.89 107.118 19.076C105.93 18.13 105.27 16.7 105.138 14.808H106.458C106.612 16.282 107.118 17.382 107.998 18.108C108.79 18.746 109.912 19.076 111.364 19.076C112.75 19.076 113.872 18.79 114.73 18.262C115.566 17.712 116.006 16.964 116.006 16.04C116.006 14.962 115.456 14.126 114.4 13.532C113.872 13.224 112.728 12.806 110.946 12.322C109.076 11.794 107.866 11.376 107.338 11.068C106.128 10.386 105.534 9.396 105.534 8.12C105.534 6.756 106.084 5.722 107.228 4.996C108.24 4.314 109.56 3.984 111.144 3.984ZM119.704 4.292H126.084C129.56 4.292 131.32 5.788 131.32 8.802C131.32 11.816 129.56 13.334 126.062 13.334H121.046V20H119.704V4.292ZM121.046 5.48V12.146H125.996C127.36 12.146 128.35 11.86 129.01 11.31C129.626 10.76 129.956 9.924 129.956 8.802C129.956 7.68 129.626 6.866 129.01 6.338C128.35 5.766 127.338 5.48 125.996 5.48H121.046ZM138.333 4.292H139.917L146.209 20H144.735L142.909 15.314H135.341L133.515 20H132.041L138.333 4.292ZM135.781 14.17H142.469L139.169 5.744H139.103L135.781 14.17ZM147.805 4.292H154.449C155.989 4.292 157.221 4.644 158.101 5.392C158.981 6.14 159.443 7.196 159.443 8.604C159.443 9.528 159.179 10.32 158.695 11.002C158.167 11.706 157.419 12.168 156.473 12.388V12.432C158.057 12.784 158.937 13.752 159.113 15.336L159.333 17.69C159.421 18.658 159.663 19.428 160.103 20H158.629C158.299 19.472 158.101 18.746 158.013 17.866L157.815 15.71C157.727 14.742 157.353 14.038 156.737 13.62C156.165 13.224 155.351 13.026 154.339 13.026H149.147V20H147.805V4.292ZM149.147 5.48V11.838H154.317C155.549 11.838 156.495 11.53 157.177 10.936C157.793 10.364 158.101 9.616 158.101 8.648C158.101 7.592 157.793 6.822 157.199 6.294C156.583 5.744 155.615 5.48 154.295 5.48H149.147ZM172.93 4.292H174.734L167.518 11.002L175.724 20H173.876L166.594 11.86L163.778 14.478V20H162.436V4.292H163.778V12.916L172.93 4.292ZM183.155 4.292H184.805L190.151 12.278L195.475 4.292H197.125L190.811 13.532V20H189.469V13.532L183.155 4.292ZM205.629 3.984C207.939 3.984 209.765 4.776 211.129 6.36C212.405 7.856 213.043 9.77 213.043 12.146C213.043 14.522 212.405 16.458 211.129 17.954C209.765 19.516 207.939 20.308 205.607 20.308C203.275 20.308 201.427 19.516 200.085 17.932C198.809 16.436 198.171 14.5 198.171 12.146C198.171 9.792 198.809 7.856 200.085 6.36C201.449 4.776 203.297 3.984 205.629 3.984ZM205.629 5.216C203.715 5.216 202.197 5.876 201.097 7.196C200.041 8.472 199.513 10.122 199.513 12.146C199.513 14.192 200.019 15.842 201.075 17.096C202.175 18.416 203.693 19.076 205.607 19.076C207.521 19.076 209.017 18.416 210.117 17.118C211.173 15.864 211.701 14.214 211.701 12.146C211.701 10.078 211.173 8.406 210.117 7.174C209.017 5.854 207.521 5.216 205.629 5.216ZM215.588 4.292H216.93V13.928C216.93 15.6 217.282 16.876 218.03 17.734C218.822 18.636 220.032 19.098 221.704 19.098C223.376 19.098 224.586 18.636 225.378 17.734C226.104 16.876 226.478 15.6 226.478 13.928V4.292H227.82V13.928C227.82 15.974 227.314 17.536 226.346 18.614C225.312 19.736 223.772 20.308 221.704 20.308C219.636 20.308 218.096 19.736 217.084 18.636C216.072 17.536 215.588 15.974 215.588 13.928V4.292ZM231.036 4.292H237.68C239.22 4.292 240.452 4.644 241.332 5.392C242.212 6.14 242.674 7.196 242.674 8.604C242.674 9.528 242.41 10.32 241.926 11.002C241.398 11.706 240.65 12.168 239.704 12.388V12.432C241.288 12.784 242.168 13.752 242.344 15.336L242.564 17.69C242.652 18.658 242.894 19.428 243.334 20H241.86C241.53 19.472 241.332 18.746 241.244 17.866L241.046 15.71C240.958 14.742 240.584 14.038 239.968 13.62C239.396 13.224 238.582 13.026 237.57 13.026H232.378V20H231.036V4.292ZM232.378 5.48V11.838H237.548C238.78 11.838 239.726 11.53 240.408 10.936C241.024 10.364 241.332 9.616 241.332 8.648C241.332 7.592 241.024 6.822 240.43 6.294C239.814 5.744 238.846 5.48 237.526 5.48H232.378ZM253.191 4.292H254.533V20H253.191V4.292ZM257.934 4.292H259.716L265.876 18.306H265.942L272.058 4.292H273.84V20H272.498V6.514H272.432L266.536 20H265.238L259.364 6.514H259.276V20H257.934V4.292ZM281.741 4.292H283.325L289.617 20H288.143L286.317 15.314H278.749L276.923 20H275.449L281.741 4.292ZM279.189 14.17H285.877L282.577 5.744H282.511L279.189 14.17ZM297.857 3.984C299.793 3.984 301.333 4.468 302.499 5.458C303.577 6.382 304.259 7.702 304.545 9.374H303.181C302.939 8.098 302.389 7.086 301.509 6.36C300.585 5.59 299.353 5.216 297.857 5.216C296.009 5.216 294.557 5.876 293.479 7.196C292.423 8.472 291.895 10.144 291.895 12.234C291.895 14.28 292.423 15.908 293.479 17.118C294.601 18.438 296.207 19.098 298.319 19.098C299.243 19.098 300.123 18.966 301.003 18.702C301.839 18.438 302.565 18.13 303.137 17.734V13.268H297.769V12.08H304.479V18.372C303.753 18.944 302.851 19.428 301.773 19.78C300.629 20.132 299.441 20.308 298.209 20.308C295.745 20.308 293.809 19.494 292.445 17.91C291.169 16.436 290.553 14.544 290.553 12.234C290.553 9.902 291.169 7.988 292.423 6.47C293.765 4.798 295.569 3.984 297.857 3.984ZM307.761 4.292H309.103V20H307.761V4.292ZM312.504 4.292H314.022L323.526 17.91H323.592V4.292H324.956V20H323.46L313.912 6.272H313.846V20H312.504V4.292ZM332.853 4.292H334.437L340.729 20H339.255L337.429 15.314H329.861L328.035 20H326.561L332.853 4.292ZM330.301 14.17H336.989L333.689 5.744H333.623L330.301 14.17ZM341.115 4.292H353.985V5.48H348.221V20H346.879V5.48H341.115V4.292ZM356.187 4.292H357.529V20H356.187V4.292ZM367.728 3.984C370.038 3.984 371.864 4.776 373.228 6.36C374.504 7.856 375.142 9.77 375.142 12.146C375.142 14.522 374.504 16.458 373.228 17.954C371.864 19.516 370.038 20.308 367.706 20.308C365.374 20.308 363.526 19.516 362.184 17.932C360.908 16.436 360.27 14.5 360.27 12.146C360.27 9.792 360.908 7.856 362.184 6.36C363.548 4.776 365.396 3.984 367.728 3.984ZM367.728 5.216C365.814 5.216 364.296 5.876 363.196 7.196C362.14 8.472 361.612 10.122 361.612 12.146C361.612 14.192 362.118 15.842 363.174 17.096C364.274 18.416 365.792 19.076 367.706 19.076C369.62 19.076 371.116 18.416 372.216 17.118C373.272 15.864 373.8 14.214 373.8 12.146C373.8 10.078 373.272 8.406 372.216 7.174C371.116 5.854 369.62 5.216 367.728 5.216ZM377.688 4.292H379.206L388.71 17.91H388.776V4.292H390.14V20H388.644L379.096 6.272H379.03V20H377.688V4.292Z" fill="white"/>
<path d="M10.3523 48.864L26.2883 70.176V48.864H33.7763V84H27.2003L11.2643 62.64V84H3.77631V48.864H10.3523ZM51.4669 58.512C53.7389 58.512 55.7389 59.008 57.4669 60C59.2269 60.96 60.5869 62.352 61.5469 64.176C62.5069 66 62.9869 68.128 62.9869 70.56C62.9869 71.584 62.8909 72.672 62.6989 73.824H46.8109C47.1629 75.2 47.7709 76.272 48.6349 77.04C49.4989 77.776 50.5549 78.144 51.8029 78.144C52.8269 78.144 53.7389 77.904 54.5389 77.424C55.3709 76.944 55.9789 76.24 56.3629 75.312L62.0749 78.72C61.3709 80.608 60.0429 82.064 58.0909 83.088C56.1389 84.112 53.9469 84.624 51.5149 84.624C49.2749 84.624 47.1629 84.128 45.1789 83.136C43.2269 82.144 41.6429 80.656 40.4269 78.672C39.2429 76.688 38.6509 74.288 38.6509 71.472C38.6509 68.688 39.2429 66.32 40.4269 64.368C41.6429 62.416 43.2269 60.96 45.1789 60C47.1309 59.008 49.2269 58.512 51.4669 58.512ZM51.2269 64.752C50.1389 64.752 49.2109 65.088 48.4429 65.76C47.7069 66.4 47.1629 67.312 46.8109 68.496H55.0669C54.9389 67.28 54.5229 66.352 53.8189 65.712C53.1149 65.072 52.2509 64.752 51.2269 64.752ZM76.8083 65.76L81.4643 59.184H90.0083L80.8403 71.376L90.0083 84H81.1283L76.5203 77.376L71.9123 84H63.3683L72.4883 71.76L63.3683 59.184H72.2483L76.8083 65.76ZM112.723 82.224C110.931 83.824 108.403 84.624 105.139 84.624C102.227 84.624 99.8908 83.872 98.1308 82.368C96.3708 80.832 95.4908 78.128 95.4908 74.256V65.76H90.9308V59.184H95.4908V51.216H103.315V59.184H110.899V65.76H103.315V72.864C103.315 74.464 103.555 75.712 104.035 76.608C104.515 77.472 105.427 77.904 106.771 77.904C107.859 77.904 108.931 77.536 109.987 76.8L112.723 82.224ZM114.993 72.768V66.24H133.281V72.768H114.993ZM154.938 70.992V63.984H169.146V78.576C168.026 80.464 166.218 81.952 163.722 83.04C161.258 84.096 158.538 84.624 155.562 84.624C152.074 84.624 148.97 83.856 146.25 82.32C143.562 80.784 141.466 78.64 139.962 75.888C138.49 73.104 137.754 69.936 137.754 66.384C137.754 62.768 138.522 59.584 140.058 56.832C141.626 54.048 143.754 51.92 146.442 50.448C149.13 48.944 152.138 48.192 155.466 48.192C157.802 48.192 159.914 48.56 161.802 49.296C163.722 50.032 165.306 51.024 166.554 52.272C167.834 53.52 168.73 54.912 169.242 56.448L162.426 60.384C161.754 58.88 160.81 57.712 159.594 56.88C158.41 56.048 156.986 55.632 155.322 55.632C153.626 55.632 152.09 56.064 150.714 56.928C149.338 57.792 148.25 59.04 147.45 60.672C146.65 62.272 146.25 64.176 146.25 66.384C146.25 69.744 147.13 72.4 148.89 74.352C150.682 76.272 153.066 77.232 156.042 77.232C158.282 77.232 159.994 76.64 161.178 75.456V70.992H154.938ZM185.342 58.512C187.614 58.512 189.614 59.008 191.342 60C193.102 60.96 194.462 62.352 195.422 64.176C196.382 66 196.862 68.128 196.862 70.56C196.862 71.584 196.766 72.672 196.574 73.824H180.686C181.038 75.2 181.646 76.272 182.51 77.04C183.374 77.776 184.43 78.144 185.678 78.144C186.702 78.144 187.614 77.904 188.414 77.424C189.246 76.944 189.854 76.24 190.238 75.312L195.95 78.72C195.246 80.608 193.918 82.064 191.966 83.088C190.014 84.112 187.822 84.624 185.39 84.624C183.15 84.624 181.038 84.128 179.054 83.136C177.102 82.144 175.518 80.656 174.302 78.672C173.118 76.688 172.526 74.288 172.526 71.472C172.526 68.688 173.118 66.32 174.302 64.368C175.518 62.416 177.102 60.96 179.054 60C181.006 59.008 183.102 58.512 185.342 58.512ZM185.102 64.752C184.014 64.752 183.086 65.088 182.318 65.76C181.582 66.4 181.038 67.312 180.686 68.496H188.942C188.814 67.28 188.398 66.352 187.694 65.712C186.99 65.072 186.126 64.752 185.102 64.752ZM216.135 58.512C218.951 58.512 221.143 59.424 222.711 61.248C224.311 63.072 225.111 65.76 225.111 69.312V84H217.287V71.952C217.287 69.872 216.967 68.256 216.327 67.104C215.719 65.952 214.695 65.376 213.255 65.376C211.815 65.376 210.695 65.984 209.895 67.2C209.095 68.416 208.695 70.112 208.695 72.288V84H200.871V59.184H207.831C207.895 60.784 208.039 62.064 208.263 63.024C209.863 60.016 212.487 58.512 216.135 58.512ZM241.873 58.512C244.145 58.512 246.145 59.008 247.873 60C249.633 60.96 250.993 62.352 251.953 64.176C252.913 66 253.393 68.128 253.393 70.56C253.393 71.584 253.297 72.672 253.105 73.824H237.217C237.569 75.2 238.177 76.272 239.041 77.04C239.905 77.776 240.961 78.144 242.209 78.144C243.233 78.144 244.145 77.904 244.945 77.424C245.777 76.944 246.385 76.24 246.769 75.312L252.481 78.72C251.777 80.608 250.449 82.064 248.497 83.088C246.545 84.112 244.353 84.624 241.921 84.624C239.681 84.624 237.569 84.128 235.585 83.136C233.633 82.144 232.049 80.656 230.833 78.672C229.649 76.688 229.057 74.288 229.057 71.472C229.057 68.688 229.649 66.32 230.833 64.368C232.049 62.416 233.633 60.96 235.585 60C237.537 59.008 239.633 58.512 241.873 58.512ZM241.633 64.752C240.545 64.752 239.617 65.088 238.849 65.76C238.113 66.4 237.569 67.312 237.217 68.496H245.473C245.345 67.28 244.929 66.352 244.225 65.712C243.521 65.072 242.657 64.752 241.633 64.752ZM271.898 58.512C272.922 58.512 273.882 58.672 274.778 58.992C275.706 59.312 276.394 59.728 276.842 60.24L273.818 66.192C272.794 65.52 271.77 65.184 270.746 65.184C269.05 65.184 267.706 65.888 266.714 67.296C265.722 68.704 265.226 70.608 265.226 73.008V84H257.402V59.184H264.362C264.426 60.752 264.57 62.032 264.794 63.024C265.53 61.552 266.506 60.432 267.722 59.664C268.97 58.896 270.362 58.512 271.898 58.512ZM288.315 58.512C291.899 58.512 294.667 59.52 296.619 61.536C298.571 63.52 299.547 66.336 299.547 69.984V84H292.971C292.811 82.656 292.699 81.76 292.635 81.312C291.867 82.432 290.939 83.264 289.851 83.808C288.763 84.352 287.387 84.624 285.723 84.624C283.963 84.624 282.347 84.32 280.875 83.712C279.435 83.072 278.283 82.176 277.419 81.024C276.587 79.84 276.171 78.448 276.171 76.848C276.171 75.184 276.635 73.728 277.563 72.48C278.523 71.2 279.803 70.224 281.403 69.552C283.003 68.88 284.747 68.544 286.635 68.544C288.395 68.544 290.123 68.848 291.819 69.456C291.595 66.32 290.171 64.752 287.547 64.752C285.339 64.752 283.739 65.776 282.747 67.824L277.227 64.608C278.155 62.72 279.579 61.232 281.499 60.144C283.451 59.056 285.723 58.512 288.315 58.512ZM291.819 74.304C290.571 73.984 289.387 73.824 288.267 73.824C286.955 73.824 285.915 74.064 285.147 74.544C284.379 75.024 283.995 75.664 283.995 76.464C283.995 77.2 284.283 77.776 284.859 78.192C285.435 78.608 286.171 78.816 287.067 78.816C288.283 78.816 289.371 78.464 290.331 77.76C291.323 77.056 291.819 76.112 291.819 74.928V74.304ZM323.66 82.224C321.868 83.824 319.34 84.624 316.076 84.624C313.164 84.624 310.828 83.872 309.068 82.368C307.308 80.832 306.428 78.128 306.428 74.256V65.76H301.868V59.184H306.428V51.216H314.252V59.184H321.836V65.76H314.252V72.864C314.252 74.464 314.492 75.712 314.972 76.608C315.452 77.472 316.364 77.904 317.708 77.904C318.796 77.904 319.868 77.536 320.924 76.8L323.66 82.224ZM330.056 56.544C328.808 56.544 327.736 56.096 326.84 55.2C325.944 54.272 325.496 53.184 325.496 51.936C325.496 50.656 325.928 49.568 326.792 48.672C327.688 47.744 328.776 47.28 330.056 47.28C331.272 47.28 332.328 47.744 333.224 48.672C334.152 49.6 334.616 50.688 334.616 51.936C334.616 53.184 334.168 54.272 333.272 55.2C332.376 56.096 331.304 56.544 330.056 56.544ZM333.992 84H326.168V59.184H333.992V84ZM338.229 71.568C338.229 68.944 338.821 66.64 340.005 64.656C341.221 62.672 342.837 61.152 344.853 60.096C346.869 59.04 349.029 58.512 351.333 58.512C353.637 58.512 355.781 59.04 357.765 60.096C359.781 61.152 361.381 62.672 362.565 64.656C363.749 66.64 364.341 68.944 364.341 71.568C364.341 74.224 363.749 76.544 362.565 78.528C361.381 80.48 359.797 81.984 357.813 83.04C355.829 84.096 353.669 84.624 351.333 84.624C348.997 84.624 346.821 84.096 344.805 83.04C342.821 81.984 341.221 80.48 340.005 78.528C338.821 76.544 338.229 74.224 338.229 71.568ZM346.293 71.568C346.293 73.52 346.757 75.072 347.685 76.224C348.645 77.344 349.845 77.904 351.285 77.904C352.693 77.904 353.861 77.344 354.789 76.224C355.749 75.072 356.229 73.52 356.229 71.568C356.229 69.616 355.749 68.064 354.789 66.912C353.861 65.76 352.693 65.184 351.285 65.184C349.845 65.184 348.645 65.76 347.685 66.912C346.757 68.064 346.293 69.616 346.293 71.568ZM383.948 58.512C386.764 58.512 388.956 59.424 390.524 61.248C392.124 63.072 392.924 65.76 392.924 69.312V84H385.1V71.952C385.1 69.872 384.78 68.256 384.14 67.104C383.532 65.952 382.508 65.376 381.068 65.376C379.628 65.376 378.508 65.984 377.708 67.2C376.908 68.416 376.508 70.112 376.508 72.288V84H368.684V59.184H375.644C375.708 60.784 375.852 62.064 376.076 63.024C377.676 60.016 380.3 58.512 383.948 58.512ZM427.853 48.864L442.109 84H433.469L430.781 76.896H417.485L414.893 84H406.733L420.605 48.864H427.853ZM428.189 70.032L424.013 59.088L420.029 70.032H428.189ZM454.062 84H445.854V48.864H454.062V84ZM489.341 77.088C492.509 77.088 494.813 75.424 496.253 72.096L503.117 76.128C502.605 77.664 501.725 79.088 500.477 80.4C499.229 81.68 497.661 82.704 495.773 83.472C493.917 84.24 491.837 84.624 489.533 84.624C486.365 84.624 483.469 83.872 480.845 82.368C478.221 80.864 476.141 78.736 474.605 75.984C473.069 73.2 472.301 70 472.301 66.384C472.301 62.768 473.069 59.584 474.605 56.832C476.141 54.08 478.221 51.952 480.845 50.448C483.469 48.944 486.365 48.192 489.533 48.192C491.837 48.192 493.917 48.576 495.773 49.344C497.661 50.112 499.229 51.152 500.477 52.464C501.725 53.744 502.605 55.152 503.117 56.688L496.253 60.72C494.813 57.392 492.509 55.728 489.341 55.728C487.773 55.728 486.349 56.16 485.069 57.024C483.821 57.856 482.813 59.088 482.045 60.72C481.309 62.32 480.941 64.208 480.941 66.384C480.941 68.56 481.309 70.464 482.045 72.096C482.813 73.728 483.821 74.976 485.069 75.84C486.349 76.672 487.773 77.088 489.341 77.088ZM521.18 58.512C522.204 58.512 523.164 58.672 524.06 58.992C524.988 59.312 525.676 59.728 526.124 60.24L523.1 66.192C522.076 65.52 521.052 65.184 520.028 65.184C518.332 65.184 516.988 65.888 515.996 67.296C515.004 68.704 514.508 70.608 514.508 73.008V84H506.684V59.184H513.644C513.708 60.752 513.852 62.032 514.076 63.024C514.812 61.552 515.788 60.432 517.004 59.664C518.252 58.896 519.644 58.512 521.18 58.512ZM538.264 58.512C540.536 58.512 542.536 59.008 544.264 60C546.024 60.96 547.384 62.352 548.344 64.176C549.304 66 549.784 68.128 549.784 70.56C549.784 71.584 549.688 72.672 549.496 73.824H533.608C533.96 75.2 534.568 76.272 535.432 77.04C536.296 77.776 537.352 78.144 538.6 78.144C539.624 78.144 540.536 77.904 541.336 77.424C542.168 76.944 542.776 76.24 543.16 75.312L548.872 78.72C548.168 80.608 546.84 82.064 544.888 83.088C542.936 84.112 540.744 84.624 538.312 84.624C536.072 84.624 533.96 84.128 531.976 83.136C530.024 82.144 528.44 80.656 527.224 78.672C526.04 76.688 525.448 74.288 525.448 71.472C525.448 68.688 526.04 66.32 527.224 64.368C528.44 62.416 530.024 60.96 531.976 60C533.928 59.008 536.024 58.512 538.264 58.512ZM538.024 64.752C536.936 64.752 536.008 65.088 535.24 65.76C534.504 66.4 533.96 67.312 533.608 68.496H541.864C541.736 67.28 541.32 66.352 540.616 65.712C539.912 65.072 539.048 64.752 538.024 64.752ZM564.737 58.512C568.321 58.512 571.089 59.52 573.041 61.536C574.993 63.52 575.969 66.336 575.969 69.984V84H569.393C569.233 82.656 569.121 81.76 569.057 81.312C568.289 82.432 567.361 83.264 566.273 83.808C565.185 84.352 563.809 84.624 562.145 84.624C560.385 84.624 558.769 84.32 557.297 83.712C555.857 83.072 554.705 82.176 553.841 81.024C553.009 79.84 552.593 78.448 552.593 76.848C552.593 75.184 553.057 73.728 553.985 72.48C554.945 71.2 556.225 70.224 557.825 69.552C559.425 68.88 561.169 68.544 563.057 68.544C564.817 68.544 566.545 68.848 568.241 69.456C568.017 66.32 566.593 64.752 563.969 64.752C561.761 64.752 560.161 65.776 559.169 67.824L553.649 64.608C554.577 62.72 556.001 61.232 557.921 60.144C559.873 59.056 562.145 58.512 564.737 58.512ZM568.241 74.304C566.993 73.984 565.809 73.824 564.689 73.824C563.377 73.824 562.337 74.064 561.569 74.544C560.801 75.024 560.417 75.664 560.417 76.464C560.417 77.2 560.705 77.776 561.281 78.192C561.857 78.608 562.593 78.816 563.489 78.816C564.705 78.816 565.793 78.464 566.753 77.76C567.745 77.056 568.241 76.112 568.241 74.928V74.304ZM600.082 82.224C598.29 83.824 595.762 84.624 592.498 84.624C589.586 84.624 587.25 83.872 585.49 82.368C583.73 80.832 582.85 78.128 582.85 74.256V65.76H578.29V59.184H582.85V51.216H590.674V59.184H598.258V65.76H590.674V72.864C590.674 74.464 590.914 75.712 591.394 76.608C591.874 77.472 592.786 77.904 594.13 77.904C595.218 77.904 596.29 77.536 597.346 76.8L600.082 82.224ZM606.478 56.544C605.23 56.544 604.158 56.096 603.262 55.2C602.366 54.272 601.918 53.184 601.918 51.936C601.918 50.656 602.35 49.568 603.214 48.672C604.11 47.744 605.198 47.28 606.478 47.28C607.694 47.28 608.75 47.744 609.646 48.672C610.574 49.6 611.038 50.688 611.038 51.936C611.038 53.184 610.59 54.272 609.694 55.2C608.798 56.096 607.726 56.544 606.478 56.544ZM610.414 84H602.59V59.184H610.414V84ZM621.947 59.184L627.755 74.208L633.227 59.184H641.435L630.683 83.952H624.299L613.259 59.184H621.947ZM653.998 58.512C656.27 58.512 658.27 59.008 659.998 60C661.758 60.96 663.118 62.352 664.078 64.176C665.038 66 665.518 68.128 665.518 70.56C665.518 71.584 665.422 72.672 665.23 73.824H649.342C649.694 75.2 650.302 76.272 651.166 77.04C652.03 77.776 653.086 78.144 654.334 78.144C655.358 78.144 656.27 77.904 657.07 77.424C657.902 76.944 658.51 76.24 658.894 75.312L664.606 78.72C663.902 80.608 662.574 82.064 660.622 83.088C658.67 84.112 656.478 84.624 654.046 84.624C651.806 84.624 649.694 84.128 647.71 83.136C645.758 82.144 644.174 80.656 642.958 78.672C641.774 76.688 641.182 74.288 641.182 71.472C641.182 68.688 641.774 66.32 642.958 64.368C644.174 62.416 645.758 60.96 647.71 60C649.662 59.008 651.758 58.512 653.998 58.512ZM653.758 64.752C652.67 64.752 651.742 65.088 650.974 65.76C650.238 66.4 649.694 67.312 649.342 68.496H657.598C657.47 67.28 657.054 66.352 656.35 65.712C655.646 65.072 654.782 64.752 653.758 64.752ZM707.569 73.68C707.569 76.272 706.881 78.384 705.505 80.016C704.161 81.648 702.465 82.832 700.417 83.568C698.369 84.272 696.273 84.624 694.129 84.624C690.897 84.624 687.937 83.888 685.249 82.416C682.561 80.912 680.769 78.752 679.873 75.936L686.497 72.144C687.201 73.776 688.225 75.04 689.569 75.936C690.945 76.832 692.561 77.28 694.417 77.28C695.793 77.28 696.897 77.024 697.729 76.512C698.593 75.968 699.025 75.184 699.025 74.16C699.025 73.328 698.737 72.64 698.161 72.096C697.585 71.552 696.865 71.104 696.001 70.752C695.137 70.4 693.921 70 692.353 69.552C690.049 68.88 688.161 68.208 686.689 67.536C685.249 66.864 684.001 65.856 682.945 64.512C681.889 63.136 681.361 61.344 681.361 59.136C681.361 56.704 681.985 54.672 683.233 53.04C684.513 51.408 686.161 50.192 688.177 49.392C690.225 48.592 692.417 48.192 694.753 48.192C697.825 48.192 700.513 48.896 702.817 50.304C705.121 51.712 706.609 53.712 707.281 56.304L700.561 60.096C700.049 58.656 699.249 57.536 698.161 56.736C697.105 55.936 695.809 55.536 694.273 55.536C692.961 55.536 691.889 55.84 691.057 56.448C690.257 57.056 689.857 57.84 689.857 58.8C689.857 59.536 690.129 60.16 690.673 60.672C691.249 61.184 691.953 61.6 692.785 61.92C693.617 62.24 694.801 62.64 696.337 63.12C698.705 63.824 700.625 64.528 702.097 65.232C703.569 65.904 704.849 66.928 705.937 68.304C707.025 69.68 707.569 71.472 707.569 73.68ZM730.301 82.224C728.509 83.824 725.981 84.624 722.717 84.624C719.805 84.624 717.469 83.872 715.709 82.368C713.949 80.832 713.069 78.128 713.069 74.256V65.76H708.509V59.184H713.069V51.216H720.893V59.184H728.477V65.76H720.893V72.864C720.893 74.464 721.133 75.712 721.613 76.608C722.093 77.472 723.005 77.904 724.349 77.904C725.437 77.904 726.509 77.536 727.565 76.8L730.301 82.224ZM748.793 59.184H756.617V84H749.705L749.609 82.944C749.481 81.504 749.369 80.576 749.273 80.16C747.641 83.136 745.049 84.624 741.497 84.624C738.681 84.624 736.457 83.712 734.825 81.888C733.225 80.064 732.425 77.376 732.425 73.824V59.184H740.249V71.184C740.249 73.168 740.521 74.768 741.065 75.984C741.641 77.168 742.681 77.76 744.185 77.76C745.657 77.76 746.793 77.152 747.593 75.936C748.393 74.72 748.793 73.024 748.793 70.848V59.184ZM779.524 47.472H787.348V84H780.388C780.324 82.624 780.212 81.456 780.052 80.496C779.124 81.872 777.988 82.912 776.644 83.616C775.332 84.288 773.86 84.624 772.228 84.624C770.148 84.624 768.244 84.112 766.516 83.088C764.82 82.032 763.46 80.528 762.436 78.576C761.444 76.592 760.948 74.256 760.948 71.568C760.948 68.848 761.444 66.512 762.436 64.56C763.46 62.576 764.82 61.072 766.516 60.048C768.244 59.024 770.148 58.512 772.228 58.512C775.332 58.512 777.764 59.648 779.524 61.92V47.472ZM774.244 78.048C775.716 78.048 776.964 77.488 777.988 76.368C779.012 75.248 779.524 73.648 779.524 71.568C779.524 69.52 779.012 67.984 777.988 66.96C776.996 65.904 775.748 65.376 774.244 65.376C772.676 65.376 771.412 65.936 770.452 67.056C769.492 68.144 769.012 69.648 769.012 71.568C769.012 73.52 769.492 75.088 770.452 76.272C771.412 77.456 772.676 78.048 774.244 78.048ZM796.884 56.544C795.636 56.544 794.564 56.096 793.668 55.2C792.772 54.272 792.324 53.184 792.324 51.936C792.324 50.656 792.756 49.568 793.62 48.672C794.516 47.744 795.604 47.28 796.884 47.28C798.1 47.28 799.156 47.744 800.052 48.672C800.98 49.6 801.444 50.688 801.444 51.936C801.444 53.184 800.996 54.272 800.1 55.2C799.204 56.096 798.132 56.544 796.884 56.544ZM800.82 84H792.996V59.184H800.82V84ZM805.057 71.568C805.057 68.944 805.649 66.64 806.833 64.656C808.049 62.672 809.665 61.152 811.681 60.096C813.697 59.04 815.857 58.512 818.161 58.512C820.465 58.512 822.609 59.04 824.593 60.096C826.609 61.152 828.209 62.672 829.393 64.656C830.577 66.64 831.169 68.944 831.169 71.568C831.169 74.224 830.577 76.544 829.393 78.528C828.209 80.48 826.625 81.984 824.641 83.04C822.657 84.096 820.497 84.624 818.161 84.624C815.825 84.624 813.649 84.096 811.633 83.04C809.649 81.984 808.049 80.48 806.833 78.528C805.649 76.544 805.057 74.224 805.057 71.568ZM813.121 71.568C813.121 73.52 813.585 75.072 814.513 76.224C815.473 77.344 816.673 77.904 818.113 77.904C819.521 77.904 820.689 77.344 821.617 76.224C822.577 75.072 823.057 73.52 823.057 71.568C823.057 69.616 822.577 68.064 821.617 66.912C820.689 65.76 819.521 65.184 818.113 65.184C816.673 65.184 815.473 65.76 814.513 66.912C813.585 68.064 813.121 69.616 813.121 71.568Z" fill="white"/>
<path d="M10.3523 48.864L26.2883 70.176V48.864H33.7763V84H27.2003L11.2643 62.64V84H3.77631V48.864H10.3523ZM51.4669 58.512C53.7389 58.512 55.7389 59.008 57.4669 60C59.2269 60.96 60.5869 62.352 61.5469 64.176C62.5069 66 62.9869 68.128 62.9869 70.56C62.9869 71.584 62.8909 72.672 62.6989 73.824H46.8109C47.1629 75.2 47.7709 76.272 48.6349 77.04C49.4989 77.776 50.5549 78.144 51.8029 78.144C52.8269 78.144 53.7389 77.904 54.5389 77.424C55.3709 76.944 55.9789 76.24 56.3629 75.312L62.0749 78.72C61.3709 80.608 60.0429 82.064 58.0909 83.088C56.1389 84.112 53.9469 84.624 51.5149 84.624C49.2749 84.624 47.1629 84.128 45.1789 83.136C43.2269 82.144 41.6429 80.656 40.4269 78.672C39.2429 76.688 38.6509 74.288 38.6509 71.472C38.6509 68.688 39.2429 66.32 40.4269 64.368C41.6429 62.416 43.2269 60.96 45.1789 60C47.1309 59.008 49.2269 58.512 51.4669 58.512ZM51.2269 64.752C50.1389 64.752 49.2109 65.088 48.4429 65.76C47.7069 66.4 47.1629 67.312 46.8109 68.496H55.0669C54.9389 67.28 54.5229 66.352 53.8189 65.712C53.1149 65.072 52.2509 64.752 51.2269 64.752ZM76.8083 65.76L81.4643 59.184H90.0083L80.8403 71.376L90.0083 84H81.1283L76.5203 77.376L71.9123 84H63.3683L72.4883 71.76L63.3683 59.184H72.2483L76.8083 65.76ZM112.723 82.224C110.931 83.824 108.403 84.624 105.139 84.624C102.227 84.624 99.8908 83.872 98.1308 82.368C96.3708 80.832 95.4908 78.128 95.4908 74.256V65.76H90.9308V59.184H95.4908V51.216H103.315V59.184H110.899V65.76H103.315V72.864C103.315 74.464 103.555 75.712 104.035 76.608C104.515 77.472 105.427 77.904 106.771 77.904C107.859 77.904 108.931 77.536 109.987 76.8L112.723 82.224ZM114.993 72.768V66.24H133.281V72.768H114.993ZM154.938 70.992V63.984H169.146V78.576C168.026 80.464 166.218 81.952 163.722 83.04C161.258 84.096 158.538 84.624 155.562 84.624C152.074 84.624 148.97 83.856 146.25 82.32C143.562 80.784 141.466 78.64 139.962 75.888C138.49 73.104 137.754 69.936 137.754 66.384C137.754 62.768 138.522 59.584 140.058 56.832C141.626 54.048 143.754 51.92 146.442 50.448C149.13 48.944 152.138 48.192 155.466 48.192C157.802 48.192 159.914 48.56 161.802 49.296C163.722 50.032 165.306 51.024 166.554 52.272C167.834 53.52 168.73 54.912 169.242 56.448L162.426 60.384C161.754 58.88 160.81 57.712 159.594 56.88C158.41 56.048 156.986 55.632 155.322 55.632C153.626 55.632 152.09 56.064 150.714 56.928C149.338 57.792 148.25 59.04 147.45 60.672C146.65 62.272 146.25 64.176 146.25 66.384C146.25 69.744 147.13 72.4 148.89 74.352C150.682 76.272 153.066 77.232 156.042 77.232C158.282 77.232 159.994 76.64 161.178 75.456V70.992H154.938ZM185.342 58.512C187.614 58.512 189.614 59.008 191.342 60C193.102 60.96 194.462 62.352 195.422 64.176C196.382 66 196.862 68.128 196.862 70.56C196.862 71.584 196.766 72.672 196.574 73.824H180.686C181.038 75.2 181.646 76.272 182.51 77.04C183.374 77.776 184.43 78.144 185.678 78.144C186.702 78.144 187.614 77.904 188.414 77.424C189.246 76.944 189.854 76.24 190.238 75.312L195.95 78.72C195.246 80.608 193.918 82.064 191.966 83.088C190.014 84.112 187.822 84.624 185.39 84.624C183.15 84.624 181.038 84.128 179.054 83.136C177.102 82.144 175.518 80.656 174.302 78.672C173.118 76.688 172.526 74.288 172.526 71.472C172.526 68.688 173.118 66.32 174.302 64.368C175.518 62.416 177.102 60.96 179.054 60C181.006 59.008 183.102 58.512 185.342 58.512ZM185.102 64.752C184.014 64.752 183.086 65.088 182.318 65.76C181.582 66.4 181.038 67.312 180.686 68.496H188.942C188.814 67.28 188.398 66.352 187.694 65.712C186.99 65.072 186.126 64.752 185.102 64.752ZM216.135 58.512C218.951 58.512 221.143 59.424 222.711 61.248C224.311 63.072 225.111 65.76 225.111 69.312V84H217.287V71.952C217.287 69.872 216.967 68.256 216.327 67.104C215.719 65.952 214.695 65.376 213.255 65.376C211.815 65.376 210.695 65.984 209.895 67.2C209.095 68.416 208.695 70.112 208.695 72.288V84H200.871V59.184H207.831C207.895 60.784 208.039 62.064 208.263 63.024C209.863 60.016 212.487 58.512 216.135 58.512ZM241.873 58.512C244.145 58.512 246.145 59.008 247.873 60C249.633 60.96 250.993 62.352 251.953 64.176C252.913 66 253.393 68.128 253.393 70.56C253.393 71.584 253.297 72.672 253.105 73.824H237.217C237.569 75.2 238.177 76.272 239.041 77.04C239.905 77.776 240.961 78.144 242.209 78.144C243.233 78.144 244.145 77.904 244.945 77.424C245.777 76.944 246.385 76.24 246.769 75.312L252.481 78.72C251.777 80.608 250.449 82.064 248.497 83.088C246.545 84.112 244.353 84.624 241.921 84.624C239.681 84.624 237.569 84.128 235.585 83.136C233.633 82.144 232.049 80.656 230.833 78.672C229.649 76.688 229.057 74.288 229.057 71.472C229.057 68.688 229.649 66.32 230.833 64.368C232.049 62.416 233.633 60.96 235.585 60C237.537 59.008 239.633 58.512 241.873 58.512ZM241.633 64.752C240.545 64.752 239.617 65.088 238.849 65.76C238.113 66.4 237.569 67.312 237.217 68.496H245.473C245.345 67.28 244.929 66.352 244.225 65.712C243.521 65.072 242.657 64.752 241.633 64.752ZM271.898 58.512C272.922 58.512 273.882 58.672 274.778 58.992C275.706 59.312 276.394 59.728 276.842 60.24L273.818 66.192C272.794 65.52 271.77 65.184 270.746 65.184C269.05 65.184 267.706 65.888 266.714 67.296C265.722 68.704 265.226 70.608 265.226 73.008V84H257.402V59.184H264.362C264.426 60.752 264.57 62.032 264.794 63.024C265.53 61.552 266.506 60.432 267.722 59.664C268.97 58.896 270.362 58.512 271.898 58.512ZM288.315 58.512C291.899 58.512 294.667 59.52 296.619 61.536C298.571 63.52 299.547 66.336 299.547 69.984V84H292.971C292.811 82.656 292.699 81.76 292.635 81.312C291.867 82.432 290.939 83.264 289.851 83.808C288.763 84.352 287.387 84.624 285.723 84.624C283.963 84.624 282.347 84.32 280.875 83.712C279.435 83.072 278.283 82.176 277.419 81.024C276.587 79.84 276.171 78.448 276.171 76.848C276.171 75.184 276.635 73.728 277.563 72.48C278.523 71.2 279.803 70.224 281.403 69.552C283.003 68.88 284.747 68.544 286.635 68.544C288.395 68.544 290.123 68.848 291.819 69.456C291.595 66.32 290.171 64.752 287.547 64.752C285.339 64.752 283.739 65.776 282.747 67.824L277.227 64.608C278.155 62.72 279.579 61.232 281.499 60.144C283.451 59.056 285.723 58.512 288.315 58.512ZM291.819 74.304C290.571 73.984 289.387 73.824 288.267 73.824C286.955 73.824 285.915 74.064 285.147 74.544C284.379 75.024 283.995 75.664 283.995 76.464C283.995 77.2 284.283 77.776 284.859 78.192C285.435 78.608 286.171 78.816 287.067 78.816C288.283 78.816 289.371 78.464 290.331 77.76C291.323 77.056 291.819 76.112 291.819 74.928V74.304ZM323.66 82.224C321.868 83.824 319.34 84.624 316.076 84.624C313.164 84.624 310.828 83.872 309.068 82.368C307.308 80.832 306.428 78.128 306.428 74.256V65.76H301.868V59.184H306.428V51.216H314.252V59.184H321.836V65.76H314.252V72.864C314.252 74.464 314.492 75.712 314.972 76.608C315.452 77.472 316.364 77.904 317.708 77.904C318.796 77.904 319.868 77.536 320.924 76.8L323.66 82.224ZM330.056 56.544C328.808 56.544 327.736 56.096 326.84 55.2C325.944 54.272 325.496 53.184 325.496 51.936C325.496 50.656 325.928 49.568 326.792 48.672C327.688 47.744 328.776 47.28 330.056 47.28C331.272 47.28 332.328 47.744 333.224 48.672C334.152 49.6 334.616 50.688 334.616 51.936C334.616 53.184 334.168 54.272 333.272 55.2C332.376 56.096 331.304 56.544 330.056 56.544ZM333.992 84H326.168V59.184H333.992V84ZM338.229 71.568C338.229 68.944 338.821 66.64 340.005 64.656C341.221 62.672 342.837 61.152 344.853 60.096C346.869 59.04 349.029 58.512 351.333 58.512C353.637 58.512 355.781 59.04 357.765 60.096C359.781 61.152 361.381 62.672 362.565 64.656C363.749 66.64 364.341 68.944 364.341 71.568C364.341 74.224 363.749 76.544 362.565 78.528C361.381 80.48 359.797 81.984 357.813 83.04C355.829 84.096 353.669 84.624 351.333 84.624C348.997 84.624 346.821 84.096 344.805 83.04C342.821 81.984 341.221 80.48 340.005 78.528C338.821 76.544 338.229 74.224 338.229 71.568ZM346.293 71.568C346.293 73.52 346.757 75.072 347.685 76.224C348.645 77.344 349.845 77.904 351.285 77.904C352.693 77.904 353.861 77.344 354.789 76.224C355.749 75.072 356.229 73.52 356.229 71.568C356.229 69.616 355.749 68.064 354.789 66.912C353.861 65.76 352.693 65.184 351.285 65.184C349.845 65.184 348.645 65.76 347.685 66.912C346.757 68.064 346.293 69.616 346.293 71.568ZM383.948 58.512C386.764 58.512 388.956 59.424 390.524 61.248C392.124 63.072 392.924 65.76 392.924 69.312V84H385.1V71.952C385.1 69.872 384.78 68.256 384.14 67.104C383.532 65.952 382.508 65.376 381.068 65.376C379.628 65.376 378.508 65.984 377.708 67.2C376.908 68.416 376.508 70.112 376.508 72.288V84H368.684V59.184H375.644C375.708 60.784 375.852 62.064 376.076 63.024C377.676 60.016 380.3 58.512 383.948 58.512ZM427.853 48.864L442.109 84H433.469L430.781 76.896H417.485L414.893 84H406.733L420.605 48.864H427.853ZM428.189 70.032L424.013 59.088L420.029 70.032H428.189ZM454.062 84H445.854V48.864H454.062V84ZM489.341 77.088C492.509 77.088 494.813 75.424 496.253 72.096L503.117 76.128C502.605 77.664 501.725 79.088 500.477 80.4C499.229 81.68 497.661 82.704 495.773 83.472C493.917 84.24 491.837 84.624 489.533 84.624C486.365 84.624 483.469 83.872 480.845 82.368C478.221 80.864 476.141 78.736 474.605 75.984C473.069 73.2 472.301 70 472.301 66.384C472.301 62.768 473.069 59.584 474.605 56.832C476.141 54.08 478.221 51.952 480.845 50.448C483.469 48.944 486.365 48.192 489.533 48.192C491.837 48.192 493.917 48.576 495.773 49.344C497.661 50.112 499.229 51.152 500.477 52.464C501.725 53.744 502.605 55.152 503.117 56.688L496.253 60.72C494.813 57.392 492.509 55.728 489.341 55.728C487.773 55.728 486.349 56.16 485.069 57.024C483.821 57.856 482.813 59.088 482.045 60.72C481.309 62.32 480.941 64.208 480.941 66.384C480.941 68.56 481.309 70.464 482.045 72.096C482.813 73.728 483.821 74.976 485.069 75.84C486.349 76.672 487.773 77.088 489.341 77.088ZM521.18 58.512C522.204 58.512 523.164 58.672 524.06 58.992C524.988 59.312 525.676 59.728 526.124 60.24L523.1 66.192C522.076 65.52 521.052 65.184 520.028 65.184C518.332 65.184 516.988 65.888 515.996 67.296C515.004 68.704 514.508 70.608 514.508 73.008V84H506.684V59.184H513.644C513.708 60.752 513.852 62.032 514.076 63.024C514.812 61.552 515.788 60.432 517.004 59.664C518.252 58.896 519.644 58.512 521.18 58.512ZM538.264 58.512C540.536 58.512 542.536 59.008 544.264 60C546.024 60.96 547.384 62.352 548.344 64.176C549.304 66 549.784 68.128 549.784 70.56C549.784 71.584 549.688 72.672 549.496 73.824H533.608C533.96 75.2 534.568 76.272 535.432 77.04C536.296 77.776 537.352 78.144 538.6 78.144C539.624 78.144 540.536 77.904 541.336 77.424C542.168 76.944 542.776 76.24 543.16 75.312L548.872 78.72C548.168 80.608 546.84 82.064 544.888 83.088C542.936 84.112 540.744 84.624 538.312 84.624C536.072 84.624 533.96 84.128 531.976 83.136C530.024 82.144 528.44 80.656 527.224 78.672C526.04 76.688 525.448 74.288 525.448 71.472C525.448 68.688 526.04 66.32 527.224 64.368C528.44 62.416 530.024 60.96 531.976 60C533.928 59.008 536.024 58.512 538.264 58.512ZM538.024 64.752C536.936 64.752 536.008 65.088 535.24 65.76C534.504 66.4 533.96 67.312 533.608 68.496H541.864C541.736 67.28 541.32 66.352 540.616 65.712C539.912 65.072 539.048 64.752 538.024 64.752ZM564.737 58.512C568.321 58.512 571.089 59.52 573.041 61.536C574.993 63.52 575.969 66.336 575.969 69.984V84H569.393C569.233 82.656 569.121 81.76 569.057 81.312C568.289 82.432 567.361 83.264 566.273 83.808C565.185 84.352 563.809 84.624 562.145 84.624C560.385 84.624 558.769 84.32 557.297 83.712C555.857 83.072 554.705 82.176 553.841 81.024C553.009 79.84 552.593 78.448 552.593 76.848C552.593 75.184 553.057 73.728 553.985 72.48C554.945 71.2 556.225 70.224 557.825 69.552C559.425 68.88 561.169 68.544 563.057 68.544C564.817 68.544 566.545 68.848 568.241 69.456C568.017 66.32 566.593 64.752 563.969 64.752C561.761 64.752 560.161 65.776 559.169 67.824L553.649 64.608C554.577 62.72 556.001 61.232 557.921 60.144C559.873 59.056 562.145 58.512 564.737 58.512ZM568.241 74.304C566.993 73.984 565.809 73.824 564.689 73.824C563.377 73.824 562.337 74.064 561.569 74.544C560.801 75.024 560.417 75.664 560.417 76.464C560.417 77.2 560.705 77.776 561.281 78.192C561.857 78.608 562.593 78.816 563.489 78.816C564.705 78.816 565.793 78.464 566.753 77.76C567.745 77.056 568.241 76.112 568.241 74.928V74.304ZM600.082 82.224C598.29 83.824 595.762 84.624 592.498 84.624C589.586 84.624 587.25 83.872 585.49 82.368C583.73 80.832 582.85 78.128 582.85 74.256V65.76H578.29V59.184H582.85V51.216H590.674V59.184H598.258V65.76H590.674V72.864C590.674 74.464 590.914 75.712 591.394 76.608C591.874 77.472 592.786 77.904 594.13 77.904C595.218 77.904 596.29 77.536 597.346 76.8L600.082 82.224ZM606.478 56.544C605.23 56.544 604.158 56.096 603.262 55.2C602.366 54.272 601.918 53.184 601.918 51.936C601.918 50.656 602.35 49.568 603.214 48.672C604.11 47.744 605.198 47.28 606.478 47.28C607.694 47.28 608.75 47.744 609.646 48.672C610.574 49.6 611.038 50.688 611.038 51.936C611.038 53.184 610.59 54.272 609.694 55.2C608.798 56.096 607.726 56.544 606.478 56.544ZM610.414 84H602.59V59.184H610.414V84ZM621.947 59.184L627.755 74.208L633.227 59.184H641.435L630.683 83.952H624.299L613.259 59.184H621.947ZM653.998 58.512C656.27 58.512 658.27 59.008 659.998 60C661.758 60.96 663.118 62.352 664.078 64.176C665.038 66 665.518 68.128 665.518 70.56C665.518 71.584 665.422 72.672 665.23 73.824H649.342C649.694 75.2 650.302 76.272 651.166 77.04C652.03 77.776 653.086 78.144 654.334 78.144C655.358 78.144 656.27 77.904 657.07 77.424C657.902 76.944 658.51 76.24 658.894 75.312L664.606 78.72C663.902 80.608 662.574 82.064 660.622 83.088C658.67 84.112 656.478 84.624 654.046 84.624C651.806 84.624 649.694 84.128 647.71 83.136C645.758 82.144 644.174 80.656 642.958 78.672C641.774 76.688 641.182 74.288 641.182 71.472C641.182 68.688 641.774 66.32 642.958 64.368C644.174 62.416 645.758 60.96 647.71 60C649.662 59.008 651.758 58.512 653.998 58.512ZM653.758 64.752C652.67 64.752 651.742 65.088 650.974 65.76C650.238 66.4 649.694 67.312 649.342 68.496H657.598C657.47 67.28 657.054 66.352 656.35 65.712C655.646 65.072 654.782 64.752 653.758 64.752ZM707.569 73.68C707.569 76.272 706.881 78.384 705.505 80.016C704.161 81.648 702.465 82.832 700.417 83.568C698.369 84.272 696.273 84.624 694.129 84.624C690.897 84.624 687.937 83.888 685.249 82.416C682.561 80.912 680.769 78.752 679.873 75.936L686.497 72.144C687.201 73.776 688.225 75.04 689.569 75.936C690.945 76.832 692.561 77.28 694.417 77.28C695.793 77.28 696.897 77.024 697.729 76.512C698.593 75.968 699.025 75.184 699.025 74.16C699.025 73.328 698.737 72.64 698.161 72.096C697.585 71.552 696.865 71.104 696.001 70.752C695.137 70.4 693.921 70 692.353 69.552C690.049 68.88 688.161 68.208 686.689 67.536C685.249 66.864 684.001 65.856 682.945 64.512C681.889 63.136 681.361 61.344 681.361 59.136C681.361 56.704 681.985 54.672 683.233 53.04C684.513 51.408 686.161 50.192 688.177 49.392C690.225 48.592 692.417 48.192 694.753 48.192C697.825 48.192 700.513 48.896 702.817 50.304C705.121 51.712 706.609 53.712 707.281 56.304L700.561 60.096C700.049 58.656 699.249 57.536 698.161 56.736C697.105 55.936 695.809 55.536 694.273 55.536C692.961 55.536 691.889 55.84 691.057 56.448C690.257 57.056 689.857 57.84 689.857 58.8C689.857 59.536 690.129 60.16 690.673 60.672C691.249 61.184 691.953 61.6 692.785 61.92C693.617 62.24 694.801 62.64 696.337 63.12C698.705 63.824 700.625 64.528 702.097 65.232C703.569 65.904 704.849 66.928 705.937 68.304C707.025 69.68 707.569 71.472 707.569 73.68ZM730.301 82.224C728.509 83.824 725.981 84.624 722.717 84.624C719.805 84.624 717.469 83.872 715.709 82.368C713.949 80.832 713.069 78.128 713.069 74.256V65.76H708.509V59.184H713.069V51.216H720.893V59.184H728.477V65.76H720.893V72.864C720.893 74.464 721.133 75.712 721.613 76.608C722.093 77.472 723.005 77.904 724.349 77.904C725.437 77.904 726.509 77.536 727.565 76.8L730.301 82.224ZM748.793 59.184H756.617V84H749.705L749.609 82.944C749.481 81.504 749.369 80.576 749.273 80.16C747.641 83.136 745.049 84.624 741.497 84.624C738.681 84.624 736.457 83.712 734.825 81.888C733.225 80.064 732.425 77.376 732.425 73.824V59.184H740.249V71.184C740.249 73.168 740.521 74.768 741.065 75.984C741.641 77.168 742.681 77.76 744.185 77.76C745.657 77.76 746.793 77.152 747.593 75.936C748.393 74.72 748.793 73.024 748.793 70.848V59.184ZM779.524 47.472H787.348V84H780.388C780.324 82.624 780.212 81.456 780.052 80.496C779.124 81.872 777.988 82.912 776.644 83.616C775.332 84.288 773.86 84.624 772.228 84.624C770.148 84.624 768.244 84.112 766.516 83.088C764.82 82.032 763.46 80.528 762.436 78.576C761.444 76.592 760.948 74.256 760.948 71.568C760.948 68.848 761.444 66.512 762.436 64.56C763.46 62.576 764.82 61.072 766.516 60.048C768.244 59.024 770.148 58.512 772.228 58.512C775.332 58.512 777.764 59.648 779.524 61.92V47.472ZM774.244 78.048C775.716 78.048 776.964 77.488 777.988 76.368C779.012 75.248 779.524 73.648 779.524 71.568C779.524 69.52 779.012 67.984 777.988 66.96C776.996 65.904 775.748 65.376 774.244 65.376C772.676 65.376 771.412 65.936 770.452 67.056C769.492 68.144 769.012 69.648 769.012 71.568C769.012 73.52 769.492 75.088 770.452 76.272C771.412 77.456 772.676 78.048 774.244 78.048ZM796.884 56.544C795.636 56.544 794.564 56.096 793.668 55.2C792.772 54.272 792.324 53.184 792.324 51.936C792.324 50.656 792.756 49.568 793.62 48.672C794.516 47.744 795.604 47.28 796.884 47.28C798.1 47.28 799.156 47.744 800.052 48.672C800.98 49.6 801.444 50.688 801.444 51.936C801.444 53.184 800.996 54.272 800.1 55.2C799.204 56.096 798.132 56.544 796.884 56.544ZM800.82 84H792.996V59.184H800.82V84ZM805.057 71.568C805.057 68.944 805.649 66.64 806.833 64.656C808.049 62.672 809.665 61.152 811.681 60.096C813.697 59.04 815.857 58.512 818.161 58.512C820.465 58.512 822.609 59.04 824.593 60.096C826.609 61.152 828.209 62.672 829.393 64.656C830.577 66.64 831.169 68.944 831.169 71.568C831.169 74.224 830.577 76.544 829.393 78.528C828.209 80.48 826.625 81.984 824.641 83.04C822.657 84.096 820.497 84.624 818.161 84.624C815.825 84.624 813.649 84.096 811.633 83.04C809.649 81.984 808.049 80.48 806.833 78.528C805.649 76.544 805.057 74.224 805.057 71.568ZM813.121 71.568C813.121 73.52 813.585 75.072 814.513 76.224C815.473 77.344 816.673 77.904 818.113 77.904C819.521 77.904 820.689 77.344 821.617 76.224C822.577 75.072 823.057 73.52 823.057 71.568C823.057 69.616 822.577 68.064 821.617 66.912C820.689 65.76 819.521 65.184 818.113 65.184C816.673 65.184 815.473 65.76 814.513 66.912C813.585 68.064 813.121 69.616 813.121 71.568Z" fill="url(#paint0_linear_2403_11620)"/>
<defs>
<linearGradient id="paint0_linear_2403_11620" x1="2.68059e-06" y1="87.7377" x2="945.923" y2="-90.8518" gradientUnits="userSpaceOnUse">
<stop offset="0.171733" stop-color="white"/>
<stop offset="0.46896" stop-color="#70FFEC"/>
<stop offset="0.616424" stop-color="#10CFFF"/>
<stop offset="0.889117" stop-color="#52D7FF"/>
<stop offset="1" stop-color="#E0F3FF"/>
</linearGradient>
</defs>
</svg>
