<svg data-v-8128b06d="" width="20" height="20" viewBox="0 0 24 24" fill="none" xmlns="http://www.w3.org/2000/svg"><path fill-rule="evenodd" clip-rule="evenodd" d="M4 12.3346C4.55228 12.3346 5 12.7823 5 13.3346V17.3346C5 18.2551 5.74619 19.0013 6.66667 19.0013H17.3333C18.2538 19.0013 19 18.2551 19 17.3346V13.3346C19 12.7823 19.4477 12.3346 20 12.3346C20.5523 12.3346 21 12.7823 21 13.3346V17.3346C21 19.3596 19.3584 21.0013 17.3333 21.0013H6.66667C4.64162 21.0013 3 19.3596 3 17.3346V13.3346C3 12.7823 3.44772 12.3346 4 12.3346Z" fill="url(#74475)"/><path fill-rule="evenodd" clip-rule="evenodd" d="M12 3.05991C12.5523 3.05991 13 3.50762 13 4.05991V15.0599C13 15.6122 12.5523 16.0599 12 16.0599C11.4477 16.0599 11 15.6122 11 15.0599V4.05991C11 3.50762 11.4477 3.05991 12 3.05991Z" fill="url(#74475)"/><path fill-rule="evenodd" clip-rule="evenodd" d="M7.38739 8.67198C6.99685 8.28147 6.99683 7.6483 7.38735 7.25777L11.2918 3.35309C11.6823 2.96256 12.3155 2.96253 12.706 3.35303L16.6106 7.25721C17.0012 7.64771 17.0012 8.28088 16.6107 8.67142C16.2202 9.06197 15.587 9.06201 15.1965 8.6715L11.999 5.47437L8.8016 8.67194C8.41109 9.06247 7.77792 9.06249 7.38739 8.67198Z" fill="url(#74475)"/><defs><linearGradient id="74475" x1="3" y1="3.05991" x2="21.2502" y2="3.3181" gradientUnits="userSpaceOnUse"><stop stop-color="#A3F545"/><stop offset="1" stop-color="#27DB93"/></linearGradient></defs></svg>