<svg data-v-152cbf9a="" width="20" height="20" viewBox="0 0 20 20" fill="currentColor" xmlns="http://www.w3.org/2000/svg"><path d="M7.35791 7.93321C7.35791 8.52739 6.87623 9.00907 6.28204 9.00907C5.68786 9.00907 5.20618 8.52739 5.20618 7.93321C5.20618 7.33902 5.68786 6.85734 6.28204 6.85734C6.87623 6.85734 7.35791 7.33902 7.35791 7.93321Z"/><path fill-rule="evenodd" clip-rule="evenodd" d="M4.43206 3.22998C2.82406 3.22998 1.52051 4.53353 1.52051 6.14154V13.8586C1.52051 15.4666 2.82406 16.7702 4.43206 16.7702H12.0614C13.5871 16.7702 14.8387 15.5967 14.9629 14.1031L16.1707 14.9015C16.4605 15.0931 16.8003 15.1953 17.1477 15.1953C18.1261 15.1953 18.9192 14.4022 18.9192 13.4238V6.57639C18.9192 6.22897 18.8171 5.88922 18.6255 5.59941C18.0859 4.78328 16.9869 4.5591 16.1707 5.09861L14.9629 5.89693C14.8386 4.40339 13.5871 3.22998 12.0614 3.22998H4.43206ZM3.1343 6.14154C3.1343 5.4248 3.71533 4.84378 4.43206 4.84378H12.0614C12.7781 4.84378 13.3591 5.42491 13.3592 6.14154L13.3589 7.39078C13.3588 7.68782 13.5219 7.96089 13.7835 8.10161C14.0451 8.24233 14.3629 8.22794 14.6107 8.06415L17.0607 6.44481C17.1334 6.39677 17.2312 6.41673 17.2793 6.4894C17.2963 6.51521 17.3054 6.54546 17.3054 6.57639V13.4238C17.3054 13.5109 17.2348 13.5815 17.1477 13.5815C17.1168 13.5815 17.0865 13.5724 17.0607 13.5553L14.6107 11.9357C14.3629 11.7719 14.0452 11.7575 13.7835 11.8982C13.5219 12.0389 13.3588 12.312 13.3589 12.609L13.3592 13.8588C13.3591 14.5755 12.7781 15.1564 12.0614 15.1564H4.43206C3.71533 15.1564 3.1343 14.5754 3.1343 13.8586V6.14154Z"/></svg>